<svg width="888" height="98" xmlns="http://www.w3.org/2000/svg">
    <defs/>
    <g>
        <path fill="#ffffff" fill-opacity="0" stroke="#000000" d="M 60 20 L 60 28"/>
        <path fill="#ffffff" fill-opacity="0" stroke="#000000" d="M 60 28 L 84 28 L 84 58 L 60 58 Z"/>
        <g>
            <path fill="#000000" stroke="none" d="M 75.00542 43.347168 Q 75.00542 45.42666 74.23945 46.524853 Q 73.47349 47.623047 71.97846 47.623047 Q 70.483444 47.623047 69.73286 46.531006 Q 68.98228 45.438965 68.98228 43.347168 Q 68.98228 41.2 69.7144 40.135643 Q 70.44653 39.07129 72.01538 39.07129 Q 73.54731 39.07129 74.27637 40.144875 Q 75.00542 41.218456 75.00542 43.347168 Z M 73.87954 43.347168 Q 73.87954 41.56299 73.4458 40.76626 Q 73.01206 39.969532 72.01538 39.969532 Q 70.99409 39.969532 70.54804 40.75703 Q 70.102 41.544533 70.102 43.347168 Q 70.102 45.100586 70.5542 45.90962 Q 71.00639 46.718647 71.99077 46.718647 Q 72.968994 46.718647 73.42426 45.88808 Q 73.87954 45.057514 73.87954 43.347168 Z M 71.27094 44.08545 L 71.27094 42.553516 L 72.71674 42.553516 L 72.71674 44.08545 L 71.27094 44.08545 Z"/>
        </g>
        <path fill="#ffffff" fill-opacity="0" stroke="#000000" d="M 84 20 L 84 28"/>
        <g>
            <path fill="#000000" stroke="none" d="M 71.23828 21.832031 Q 71.23828 22.921873 70.5 23.519531 Q 69.76172 24.117188 68.4375 24.117188 Q 67.18359 24.117188 66.43359 23.548828 Q 65.68359 22.98047 65.54883 21.878906 L 66.63867 21.779297 Q 66.84961 23.244139 68.4375 23.244139 Q 69.234375 23.244139 69.68848 22.875 Q 70.14258 22.50586 70.14258 21.796875 Q 70.14258 21.357422 69.87598 21.055664 Q 69.609375 20.753906 69.15234 20.592773 Q 68.69531 20.43164 68.12695 20.43164 L 67.5293 20.43164 L 67.5293 19.517578 L 68.103516 19.517578 Q 68.60742 19.517578 69.02637 19.350586 Q 69.44531 19.183594 69.68555 18.878906 Q 69.92578 18.574219 69.92578 18.158203 Q 69.92578 17.53711 69.53613 17.188477 Q 69.146484 16.839844 68.37891 16.839844 Q 67.68164 16.839844 67.25098 17.197266 Q 66.82031 17.554688 66.75 18.205078 L 65.68945 18.123047 Q 65.80664 17.109375 66.53027 16.541016 Q 67.25391 15.972656 68.390625 15.972656 Q 69.63281 15.972656 70.32129 16.520508 Q 71.009766 17.06836 71.009766 18.046875 Q 71.009766 18.74414 70.546875 19.259766 Q 70.083984 19.77539 69.28125 19.939453 L 69.28125 19.96289 Q 70.166016 20.0625 70.70215 20.583984 Q 71.23828 21.105469 71.23828 21.832031 Z M 72.91992 24 L 72.91992 23.15039 L 75.49219 23.15039 L 75.49219 17.167969 Q 75.27539 17.625 74.46387 17.964844 Q 73.65234 18.304688 72.86719 18.304688 L 72.86719 17.4375 Q 73.734375 17.4375 74.50488 17.05664 Q 75.27539 16.675781 75.58008 16.095703 L 76.552734 16.095703 L 76.552734 23.15039 L 78.62109 23.15039 L 78.62109 24 L 72.91992 24 Z"/>
        </g>
        <path fill="#ffffff" fill-opacity="0" stroke="#000000" d="M 84 28 L 108 28 L 108 58 L 84 58 Z"/>
        <g>
            <path fill="#000000" stroke="none" d="M 99.14692 43.310253 Q 99.14692 45.09443 98.54092 46.17417 Q 97.934906 47.25391 96.80903 47.52461 Q 97.06129 48.29981 97.47349 48.65049 Q 97.88569 49.00117 98.50708 49.00117 Q 98.84546 49.00117 99.2146 48.921192 L 99.2146 49.74561 Q 98.64243 49.88096 98.119484 49.88096 Q 97.19663 49.88096 96.59678 49.361084 Q 95.996925 48.84121 95.60932 47.59844 Q 94.26196 47.463085 93.55444 46.371048 Q 92.84692 45.279003 92.84692 43.310253 Q 92.84692 41.236916 93.64673 40.154102 Q 94.44653 39.07129 96.003075 39.07129 Q 97.522705 39.07129 98.33481 40.13872 Q 99.14692 41.206154 99.14692 43.310253 Z M 97.9103 43.310253 Q 97.9103 40.031055 96.003075 40.031055 Q 94.08354 40.031055 94.08354 43.310253 Q 94.08354 44.971386 94.56959 45.82041 Q 95.0556 46.669434 95.996925 46.669434 Q 96.99975 46.669434 97.455025 45.80811 Q 97.9103 44.946774 97.9103 43.310253 Z"/>
        </g>
        <path fill="#ffffff" fill-opacity="0" stroke="#000000" d="M 108 20 L 108 28"/>
        <g>
            <path fill="#000000" stroke="none" d="M 95.23827 21.832031 Q 95.23827 22.921873 94.50001 23.519531 Q 93.76172 24.117188 92.43751 24.117188 Q 91.18359 24.117188 90.43359 23.548828 Q 89.683586 22.98047 89.54883 21.878906 L 90.63867 21.779297 Q 90.84961 23.244139 92.43751 23.244139 Q 93.23437 23.244139 93.68848 22.875 Q 94.14258 22.50586 94.14258 21.796875 Q 94.14258 21.357422 93.87598 21.055664 Q 93.60938 20.753906 93.15235 20.592773 Q 92.69532 20.43164 92.12695 20.43164 L 91.5293 20.43164 L 91.5293 19.517578 L 92.103516 19.517578 Q 92.60743 19.517578 93.02637 19.350586 Q 93.44531 19.183594 93.68555 18.878906 Q 93.92579 18.574219 93.92579 18.158203 Q 93.92579 17.53711 93.53613 17.188477 Q 93.146484 16.839844 92.378914 16.839844 Q 91.68164 16.839844 91.25098 17.197266 Q 90.82031 17.554688 90.75 18.205078 L 89.68945 18.123047 Q 89.80664 17.109375 90.53027 16.541016 Q 91.25391 15.972656 92.390625 15.972656 Q 93.63281 15.972656 94.32128 16.520508 Q 95.00976 17.06836 95.00976 18.046875 Q 95.00976 18.74414 94.546875 19.259766 Q 94.083984 19.77539 93.28125 19.939453 L 93.28125 19.96289 Q 94.166016 20.0625 94.70215 20.583984 Q 95.23827 21.105469 95.23827 21.832031 Z M 102.46289 20.044922 Q 102.46289 22.02539 101.7334 23.07129 Q 101.00391 24.117188 99.58008 24.117188 Q 98.15625 24.117188 97.44141 23.077148 Q 96.72656 22.03711 96.72656 20.044922 Q 96.72656 18 97.42383 16.986328 Q 98.12109 15.972656 99.615234 15.972656 Q 101.07422 15.972656 101.76855 16.995117 Q 102.46289 18.017578 102.46289 20.044922 Z M 101.390625 20.044922 Q 101.390625 18.345703 100.97754 17.586914 Q 100.564445 16.828125 99.615234 16.828125 Q 98.64258 16.828125 98.217766 17.578125 Q 97.79298 18.328125 97.79298 20.044922 Q 97.79298 21.714844 98.22363 22.48535 Q 98.6543 23.25586 99.59179 23.25586 Q 100.52344 23.25586 100.95703 22.464846 Q 101.390625 21.673828 101.390625 20.044922 Z M 98.90624 20.748047 L 98.90624 19.289063 L 100.28321 19.289063 L 100.28321 20.748047 L 98.90624 20.748047 Z"/>
        </g>
        <path fill="#ffffff" fill-opacity="0" stroke="#000000" d="M 108 28 L 132 28 L 132 58 L 108 58 Z"/>
        <g>
            <path fill="#000000" stroke="none" d="M 123.00542 43.347168 Q 123.00542 45.42666 122.23945 46.524853 Q 121.47349 47.623047 119.97846 47.623047 Q 118.483444 47.623047 117.73286 46.531006 Q 116.98227 45.438965 116.98227 43.347168 Q 116.98227 41.2 117.7144 40.135643 Q 118.44653 39.07129 120.01538 39.07129 Q 121.5473 39.07129 122.27636 40.144875 Q 123.00542 41.218456 123.00542 43.347168 Z M 121.87954 43.347168 Q 121.87954 41.56299 121.44579 40.76626 Q 121.01206 39.969532 120.01538 39.969532 Q 118.99409 39.969532 118.54804 40.75703 Q 118.102 41.544533 118.102 43.347168 Q 118.102 45.100586 118.55421 45.90962 Q 119.00639 46.718647 119.99076 46.718647 Q 120.968994 46.718647 121.42426 45.88808 Q 121.87954 45.057514 121.87954 43.347168 Z M 119.27094 44.08545 L 119.27094 42.553516 L 120.716736 42.553516 L 120.716736 44.08545 L 119.27094 44.08545 Z"/>
        </g>
        <path fill="#ffffff" fill-opacity="0" stroke="#000000" d="M 132 20 L 132 28"/>
        <g>
            <path fill="#000000" stroke="none" d="M 113.64258 24 L 113.64258 23.314453 Q 113.92969 22.675781 114.53613 22.028322 Q 115.14257 21.38086 116.18555 20.548828 Q 117.11719 19.804688 117.52734 19.253906 Q 117.9375 18.703125 117.9375 18.19336 Q 117.9375 17.542969 117.5332 17.191406 Q 117.12891 16.839844 116.378914 16.839844 Q 115.71094 16.839844 115.29785 17.206055 Q 114.88476 17.572266 114.80859 18.234375 L 113.73047 18.134766 Q 113.84766 17.138672 114.54493 16.555664 Q 115.24219 15.972656 116.378914 15.972656 Q 117.62695 15.972656 118.32421 16.535156 Q 119.021484 17.097656 119.021484 18.128906 Q 119.021484 18.802734 118.57617 19.473633 Q 118.13086 20.144531 117.24609 20.847656 Q 116.03906 21.808594 115.573235 22.262695 Q 115.10742 22.716797 114.914055 23.144533 L 119.15039 23.144533 L 119.15039 24 L 113.64258 24 Z M 126.36913 19.88086 Q 126.36913 21.908203 125.58984 23.012695 Q 124.81055 24.117188 123.38086 24.117188 Q 122.41406 24.117188 121.831055 23.709959 Q 121.248055 23.302736 120.99609 22.394531 L 122.00391 22.236328 Q 122.32031 23.267578 123.39844 23.267578 Q 124.30078 23.267578 124.80762 22.450197 Q 125.31446 21.63281 125.32617 20.191406 Q 125.0918 20.71875 124.52344 21.038086 Q 123.95508 21.357422 123.27539 21.357422 Q 122.16797 21.357422 121.49707 20.610352 Q 120.82617 19.863281 120.82617 18.66211 Q 120.82617 17.419922 121.56153 16.69629 Q 122.296875 15.972656 123.57422 15.972656 Q 126.36913 15.972656 126.36913 19.88086 Z M 125.2207 18.949219 Q 125.2207 18.00586 124.75195 17.416992 Q 124.28321 16.828125 123.53907 16.828125 Q 122.77734 16.828125 122.33789 17.33789 Q 121.89844 17.847656 121.89844 18.66211 Q 121.89844 19.5 122.33789 20.012695 Q 122.77734 20.52539 123.52734 20.52539 Q 123.97266 20.52539 124.36817 20.323242 Q 124.76367 20.121094 124.99219 19.760742 Q 125.2207 19.40039 125.2207 18.949219 Z"/>
        </g>
        <path fill="#ffffff" fill-opacity="0" stroke="#000000" d="M 132 28 L 324 28 L 324 58 L 132 58 Z"/>
        <g>
            <path fill="#000000" stroke="none" d="M 147.00543 43.347168 Q 147.00543 45.42666 146.23946 46.524853 Q 145.4735 47.623047 143.97847 47.623047 Q 142.48346 47.623047 141.73286 46.531006 Q 140.98228 45.438965 140.98228 43.347168 Q 140.98228 41.2 141.71442 40.135643 Q 142.44653 39.07129 144.01538 39.07129 Q 145.54732 39.07129 146.27637 40.144875 Q 147.00543 41.218456 147.00543 43.347168 Z M 145.87955 43.347168 Q 145.87955 41.56299 145.4458 40.76626 Q 145.01207 39.969532 144.01538 39.969532 Q 142.9941 39.969532 142.54805 40.75703 Q 142.102 41.544533 142.102 43.347168 Q 142.102 45.100586 142.5542 45.90962 Q 143.00641 46.718647 143.99078 46.718647 Q 144.969 46.718647 145.42427 45.88808 Q 145.87955 45.057514 145.87955 43.347168 Z M 143.27095 44.08545 L 143.27095 42.553516 L 144.71675 42.553516 L 144.71675 44.08545 L 143.27095 44.08545 Z"/>
        </g>
        <g>
            <path fill="#000000" stroke="none" d="M 165.1853 47.5 L 165.1853 46.607906 L 167.88618 46.607906 L 167.88618 40.326366 Q 167.65855 40.80625 166.80646 41.163086 Q 165.95435 41.51992 165.12994 41.51992 L 165.12994 40.609375 Q 166.04048 40.609375 166.84952 40.209473 Q 167.65855 39.80957 167.97847 39.20049 L 168.99976 39.20049 L 168.99976 46.607906 L 171.17154 46.607906 L 171.17154 47.5 L 165.1853 47.5 Z"/>
        </g>
        <g>
            <path fill="#000000" stroke="none" d="M 189.18532 47.5 L 189.18532 46.607906 L 191.8862 46.607906 L 191.8862 40.326366 Q 191.65855 40.80625 190.80647 41.163086 Q 189.95436 41.51992 189.12996 41.51992 L 189.12996 40.609375 Q 190.04047 40.609375 190.84952 40.209473 Q 191.65855 39.80957 191.97847 39.20049 L 192.99976 39.20049 L 192.99976 46.607906 L 195.17154 46.607906 L 195.17154 47.5 L 189.18532 47.5 Z"/>
        </g>
        <g>
            <path fill="#000000" stroke="none" d="M 213.18532 47.5 L 213.18532 46.607906 L 215.8862 46.607906 L 215.8862 40.326366 Q 215.65855 40.80625 214.80647 41.163086 Q 213.95436 41.51992 213.12996 41.51992 L 213.12996 40.609375 Q 214.04047 40.609375 214.84952 40.209473 Q 215.65855 39.80957 215.97847 39.20049 L 216.99976 39.20049 L 216.99976 46.607906 L 219.17154 46.607906 L 219.17154 47.5 L 213.18532 47.5 Z"/>
        </g>
        <g>
            <path fill="#000000" stroke="none" d="M 243.00545 43.347168 Q 243.00545 45.42666 242.23944 46.524853 Q 241.4735 47.623047 239.97847 47.623047 Q 238.48346 47.623047 237.73286 46.531006 Q 236.9823 45.438965 236.9823 43.347168 Q 236.9823 41.2 237.71442 40.135643 Q 238.44653 39.07129 240.01538 39.07129 Q 241.54733 39.07129 242.27637 40.144875 Q 243.00545 41.218456 243.00545 43.347168 Z M 241.87955 43.347168 Q 241.87955 41.56299 241.4458 40.76626 Q 241.01205 39.969532 240.01538 39.969532 Q 238.99411 39.969532 238.54805 40.75703 Q 238.10199 41.544533 238.10199 43.347168 Q 238.10199 45.100586 238.5542 45.90962 Q 239.00641 46.718647 239.99078 46.718647 Q 240.969 46.718647 241.42426 45.88808 Q 241.87955 45.057514 241.87955 43.347168 Z M 239.27095 44.08545 L 239.27095 42.553516 L 240.71677 42.553516 L 240.71677 44.08545 L 239.27095 44.08545 Z"/>
        </g>
        <g>
            <path fill="#000000" stroke="none" d="M 267.00543 43.347168 Q 267.00543 45.42666 266.23947 46.524853 Q 265.47348 47.623047 263.9785 47.623047 Q 262.48346 47.623047 261.73288 46.531006 Q 260.98227 45.438965 260.98227 43.347168 Q 260.98227 41.2 261.71442 40.135643 Q 262.44653 39.07129 264.01538 39.07129 Q 265.54733 39.07129 266.27637 40.144875 Q 267.00543 41.218456 267.00543 43.347168 Z M 265.87955 43.347168 Q 265.87955 41.56299 265.4458 40.76626 Q 265.01205 39.969532 264.01538 39.969532 Q 262.9941 39.969532 262.54807 40.75703 Q 262.10202 41.544533 262.10202 43.347168 Q 262.10202 45.100586 262.5542 45.90962 Q 263.0064 46.718647 263.99078 46.718647 Q 264.969 46.718647 265.4243 45.88808 Q 265.87955 45.057514 265.87955 43.347168 Z M 263.27097 44.08545 L 263.27097 42.553516 L 264.71677 42.553516 L 264.71677 44.08545 L 263.27097 44.08545 Z"/>
        </g>
        <g>
            <path fill="#000000" stroke="none" d="M 291.00543 43.347168 Q 291.00543 45.42666 290.23947 46.524853 Q 289.47348 47.623047 287.9785 47.623047 Q 286.48346 47.623047 285.73288 46.531006 Q 284.98227 45.438965 284.98227 43.347168 Q 284.98227 41.2 285.71442 40.135643 Q 286.44653 39.07129 288.01538 39.07129 Q 289.54733 39.07129 290.27637 40.144875 Q 291.00543 41.218456 291.00543 43.347168 Z M 289.87955 43.347168 Q 289.87955 41.56299 289.4458 40.76626 Q 289.01205 39.969532 288.01538 39.969532 Q 286.9941 39.969532 286.54807 40.75703 Q 286.10202 41.544533 286.10202 43.347168 Q 286.10202 45.100586 286.5542 45.90962 Q 287.0064 46.718647 287.99078 46.718647 Q 288.969 46.718647 289.4243 45.88808 Q 289.87955 45.057514 289.87955 43.347168 Z M 287.27097 44.08545 L 287.27097 42.553516 L 288.71677 42.553516 L 288.71677 44.08545 L 287.27097 44.08545 Z"/>
        </g>
        <g>
            <path fill="#000000" stroke="none" d="M 315.00543 43.347168 Q 315.00543 45.42666 314.23947 46.524853 Q 313.47348 47.623047 311.9785 47.623047 Q 310.48346 47.623047 309.73288 46.531006 Q 308.98227 45.438965 308.98227 43.347168 Q 308.98227 41.2 309.71442 40.135643 Q 310.44653 39.07129 312.01538 39.07129 Q 313.54733 39.07129 314.27637 40.144875 Q 315.00543 41.218456 315.00543 43.347168 Z M 313.87955 43.347168 Q 313.87955 41.56299 313.4458 40.76626 Q 313.01205 39.969532 312.01538 39.969532 Q 310.9941 39.969532 310.54807 40.75703 Q 310.10202 41.544533 310.10202 43.347168 Q 310.10202 45.100586 310.5542 45.90962 Q 311.0064 46.718647 311.99078 46.718647 Q 312.969 46.718647 313.4243 45.88808 Q 313.87955 45.057514 313.87955 43.347168 Z M 311.27097 44.08545 L 311.27097 42.553516 L 312.71677 42.553516 L 312.71677 44.08545 L 311.27097 44.08545 Z"/>
        </g>
        <path fill="#ffffff" fill-opacity="0" stroke="#000000" d="M 324 20 L 324 28"/>
        <g>
            <path fill="#000000" stroke="none" d="M 137.64258 24 L 137.64258 23.314453 Q 137.92969 22.675781 138.53613 22.028322 Q 139.14258 21.38086 140.18555 20.548828 Q 141.11719 19.804688 141.52734 19.253906 Q 141.9375 18.703125 141.9375 18.19336 Q 141.9375 17.542969 141.5332 17.191406 Q 141.1289 16.839844 140.3789 16.839844 Q 139.71094 16.839844 139.29785 17.206055 Q 138.88477 17.572266 138.8086 18.234375 L 137.73047 18.134766 Q 137.84766 17.138672 138.54492 16.555664 Q 139.24219 15.972656 140.3789 15.972656 Q 141.62695 15.972656 142.32422 16.535156 Q 143.02148 17.097656 143.02148 18.128906 Q 143.02148 18.802734 142.57617 19.473633 Q 142.13086 20.144531 141.2461 20.847656 Q 140.03906 21.808594 139.57324 22.262695 Q 139.10742 22.716797 138.91406 23.144533 L 143.15039 23.144533 L 143.15039 24 L 137.64258 24 Z M 150.41016 21.785156 Q 150.41016 22.863281 149.68066 23.490234 Q 148.95117 24.117188 147.59766 24.117188 Q 146.27344 24.117188 145.52637 23.501951 Q 144.7793 22.88672 144.7793 21.796875 Q 144.7793 21.041016 145.24219 20.510742 Q 145.70508 19.980469 146.42578 19.857422 L 146.42578 19.833984 Q 145.76953 19.675781 145.3711 19.166016 Q 144.97266 18.65625 144.97266 18 Q 144.97266 17.425781 145.29785 16.957031 Q 145.62305 16.488281 146.21484 16.230469 Q 146.80664 15.972656 147.57422 15.972656 Q 148.37695 15.972656 148.97461 16.233398 Q 149.57227 16.49414 149.88867 16.957031 Q 150.20508 17.419922 150.20508 18.011719 Q 150.20508 18.673828 149.80078 19.183594 Q 149.39648 19.69336 148.74023 19.822266 L 148.74023 19.845703 Q 149.50195 19.96875 149.95605 20.487305 Q 150.41016 21.00586 150.41016 21.785156 Z M 149.10938 18.070313 Q 149.10938 17.419922 148.71387 17.088867 Q 148.31836 16.757813 147.57422 16.757813 Q 146.85352 16.757813 146.45215 17.091797 Q 146.05078 17.425781 146.05078 18.070313 Q 146.05078 18.720703 146.45508 19.078125 Q 146.85938 19.435547 147.58594 19.435547 Q 149.10938 19.435547 149.10938 18.070313 Z M 149.31445 21.685547 Q 149.31445 20.982422 148.85742 20.604492 Q 148.40039 20.226563 147.57422 20.226563 Q 146.77734 20.226563 146.32324 20.63379 Q 145.86914 21.041016 145.86914 21.708984 Q 145.86914 22.499998 146.31152 22.913086 Q 146.7539 23.326172 147.60938 23.326172 Q 148.4707 23.326172 148.89258 22.921873 Q 149.31445 22.517578 149.31445 21.685547 Z"/>
        </g>
        <g>
            <path fill="#000000" stroke="none" d="M 305.64258 24 L 305.64258 23.314453 Q 305.9297 22.675781 306.53613 22.028322 Q 307.14258 21.38086 308.18555 20.548828 Q 309.1172 19.804688 309.52734 19.253906 Q 309.9375 18.703125 309.9375 18.19336 Q 309.9375 17.542969 309.5332 17.191406 Q 309.1289 16.839844 308.3789 16.839844 Q 307.71094 16.839844 307.29785 17.206055 Q 306.88477 17.572266 306.8086 18.234375 L 305.73047 18.134766 Q 305.84766 17.138672 306.54492 16.555664 Q 307.2422 15.972656 308.3789 15.972656 Q 309.62695 15.972656 310.32422 16.535156 Q 311.02148 17.097656 311.02148 18.128906 Q 311.02148 18.802734 310.57617 19.473633 Q 310.13086 20.144531 309.2461 20.847656 Q 308.03906 21.808594 307.57324 22.262695 Q 307.10742 22.716797 306.91406 23.144533 L 311.1504 23.144533 L 311.1504 24 L 305.64258 24 Z M 312.91992 24 L 312.91992 23.15039 L 315.4922 23.15039 L 315.4922 17.167969 Q 315.2754 17.625 314.46387 17.964844 Q 313.65234 18.304688 312.8672 18.304688 L 312.8672 17.4375 Q 313.73438 17.4375 314.50488 17.05664 Q 315.2754 16.675781 315.58008 16.095703 L 316.55273 16.095703 L 316.55273 23.15039 L 318.6211 23.15039 L 318.6211 24 L 312.91992 24 Z"/>
        </g>
        <path fill="#ffffff" fill-opacity="0" stroke="#000000" d="M 324 28 L 444 28 L 444 58 L 324 58 Z"/>
        <g>
            <path fill="#000000" stroke="none" d="M 373.46103 46.626366 L 375.79892 46.626366 L 375.79892 47.5 L 369.7573 47.5 L 369.7573 46.626366 L 372.3536 46.626366 L 372.3536 41.716797 L 370.39105 41.716797 L 370.39105 40.843163 L 373.46103 40.843163 L 373.46103 46.626366 Z M 372.23056 39.55117 L 372.23056 38.369923 L 373.46103 38.369923 L 373.46103 39.55117 L 372.23056 39.55117 Z M 379.70566 47.5 L 379.70566 43.27949 Q 379.70566 42.33203 379.55493 41.953663 Q 379.4042 41.575294 379.0043 41.575294 Q 378.61057 41.575294 378.36755 42.165916 Q 378.12448 42.756542 378.12448 43.765526 L 378.12448 47.5 L 377.08478 47.5 L 377.08478 42.264355 Q 377.08478 41.101563 377.04785 40.843163 L 377.9646 40.843163 L 378.00143 41.62451 L 378.00143 41.919823 L 378.01376 41.919823 Q 378.22296 41.292286 378.54285 41.006203 Q 378.8628 40.720116 379.34268 40.720116 Q 379.8841 40.720116 380.15173 41.01543 Q 380.41937 41.31074 380.53625 41.925976 L 380.54855 41.925976 Q 380.79465 41.273827 381.1361 40.99697 Q 381.4775 40.720116 382.0005 40.720116 Q 382.72647 40.720116 383.04025 41.249218 Q 383.35403 41.77832 383.35403 43.06416 L 383.35403 47.5 L 382.32043 47.5 L 382.32043 43.27949 Q 382.32043 42.33203 382.16965 41.953663 Q 382.01898 41.575294 381.61905 41.575294 Q 381.213 41.575294 380.97614 42.09209 Q 380.73926 42.608887 380.73926 43.64248 L 380.73926 47.5 L 379.70566 47.5 Z M 387.26688 47.5 L 387.26688 43.27949 Q 387.26688 42.33203 387.11615 41.953663 Q 386.96542 41.575294 386.56552 41.575294 Q 386.17178 41.575294 385.92877 42.165916 Q 385.68576 42.756542 385.68576 43.765526 L 385.68576 47.5 L 384.64597 47.5 L 384.64597 42.264355 Q 384.64597 41.101563 384.60907 40.843163 L 385.5258 40.843163 L 385.56265 41.62451 L 385.56265 41.919823 L 385.57498 41.919823 Q 385.78418 41.292286 386.10413 41.006203 Q 386.424 40.720116 386.9039 40.720116 Q 387.4453 40.720116 387.71295 41.01543 Q 387.98056 41.31074 388.09747 41.925976 L 388.10977 41.925976 Q 388.35587 41.273827 388.69733 40.99697 Q 389.0388 40.720116 389.5617 40.720116 Q 390.2877 40.720116 390.60147 41.249218 Q 390.91522 41.77832 390.91522 43.06416 L 390.91522 47.5 L 389.88165 47.5 L 389.88165 43.27949 Q 389.88165 42.33203 389.73087 41.953663 Q 389.5802 41.575294 389.18027 41.575294 Q 388.7742 41.575294 388.53735 42.09209 Q 388.30048 42.608887 388.30048 43.64248 L 388.30048 47.5 L 387.26688 47.5 Z M 398.32263 44.76836 Q 398.32263 45.623535 397.95966 46.26953 Q 397.59668 46.915527 396.89838 47.269287 Q 396.20007 47.623047 395.24646 47.623047 Q 394.03445 47.623047 393.29007 47.093945 Q 392.5456 46.564842 392.34872 45.562008 L 393.46844 45.43281 Q 393.81912 46.718647 395.2711 46.718647 Q 396.13855 46.718647 396.65536 46.201855 Q 397.17215 45.68506 397.17215 44.79297 Q 397.17215 44.03008 396.6615 43.544044 Q 396.15088 43.058006 395.29572 43.058006 Q 394.8466 43.058006 394.45898 43.199512 Q 394.07138 43.341015 393.68378 43.679398 L 392.60095 43.679398 L 392.89014 39.20049 L 397.81815 39.20049 L 397.81815 40.09258 L 393.9114 40.09258 L 393.733 42.707325 Q 394.45282 42.153614 395.52332 42.153614 Q 396.7784 42.153614 397.55054 42.876514 Q 398.32263 43.599415 398.32263 44.76836 Z"/>
        </g>
        <path fill="#ffffff" fill-opacity="0" stroke="#000000" d="M 444 20 L 444 28"/>
        <g>
            <path fill="#000000" stroke="none" d="M 329.64258 24 L 329.64258 23.314453 Q 329.9297 22.675781 330.53613 22.028322 Q 331.14258 21.38086 332.18555 20.548828 Q 333.1172 19.804688 333.52734 19.253906 Q 333.9375 18.703125 333.9375 18.19336 Q 333.9375 17.542969 333.5332 17.191406 Q 333.1289 16.839844 332.3789 16.839844 Q 331.71094 16.839844 331.29785 17.206055 Q 330.88477 17.572266 330.8086 18.234375 L 329.73047 18.134766 Q 329.84766 17.138672 330.54492 16.555664 Q 331.2422 15.972656 332.3789 15.972656 Q 333.62695 15.972656 334.32422 16.535156 Q 335.02148 17.097656 335.02148 18.128906 Q 335.02148 18.802734 334.57617 19.473633 Q 334.13086 20.144531 333.2461 20.847656 Q 332.03906 21.808594 331.57324 22.262695 Q 331.10742 22.716797 330.91406 23.144533 L 335.1504 23.144533 L 335.1504 24 L 329.64258 24 Z M 342.4629 20.044922 Q 342.4629 22.02539 341.7334 23.07129 Q 341.0039 24.117188 339.58008 24.117188 Q 338.15625 24.117188 337.4414 23.077148 Q 336.72656 22.03711 336.72656 20.044922 Q 336.72656 18 337.42383 16.986328 Q 338.1211 15.972656 339.61523 15.972656 Q 341.07422 15.972656 341.76855 16.995117 Q 342.4629 18.017578 342.4629 20.044922 Z M 341.39063 20.044922 Q 341.39063 18.345703 340.97754 17.586914 Q 340.56445 16.828125 339.61523 16.828125 Q 338.64258 16.828125 338.21777 17.578125 Q 337.79297 18.328125 337.79297 20.044922 Q 337.79297 21.714844 338.22363 22.48535 Q 338.6543 23.25586 339.5918 23.25586 Q 340.52344 23.25586 340.95703 22.464846 Q 341.39063 21.673828 341.39063 20.044922 Z M 338.90625 20.748047 L 338.90625 19.289063 L 340.2832 19.289063 L 340.2832 20.748047 L 338.90625 20.748047 Z"/>
        </g>
        <g>
            <path fill="#000000" stroke="none" d="M 425.71875 24 L 425.71875 23.15039 L 428.29105 23.15039 L 428.29105 17.167969 Q 428.07422 17.625 427.2627 17.964844 Q 426.4512 18.304688 425.66602 18.304688 L 425.66602 17.4375 Q 426.5332 17.4375 427.30374 17.05664 Q 428.07422 16.675781 428.37888 16.095703 L 429.35156 16.095703 L 429.35156 23.15039 L 431.41992 23.15039 L 431.41992 24 L 425.71875 24 Z M 438.42188 21.386719 Q 438.42188 22.628908 437.70996 23.373045 Q 436.99805 24.117188 435.75586 24.117188 Q 434.37305 24.117188 433.6289 23.106445 Q 432.88477 22.095703 432.88477 20.238281 Q 432.88477 18.199219 433.65817 17.085938 Q 434.43164 15.972656 435.83792 15.972656 Q 437.70703 15.972656 438.19336 17.654297 L 437.18555 17.835938 Q 436.87503 16.828125 435.82614 16.828125 Q 434.92972 16.828125 434.43164 17.642578 Q 433.9336 18.457031 433.9336 19.927734 Q 434.22067 19.394531 434.7422 19.11621 Q 435.26364 18.83789 435.9375 18.83789 Q 437.0625 18.83789 437.7422 19.532227 Q 438.42188 20.226563 438.42188 21.386719 Z M 437.3496 21.433594 Q 437.3496 20.589844 436.90137 20.121094 Q 436.45313 19.652344 435.68555 19.652344 Q 435.25192 19.652344 434.86523 19.848633 Q 434.47852 20.044922 434.2588 20.393555 Q 434.03906 20.742188 434.03906 21.18164 Q 434.03906 22.072266 434.5107 22.669922 Q 434.98242 23.267578 435.72067 23.267578 Q 436.46484 23.267578 436.90723 22.77539 Q 437.3496 22.283203 437.3496 21.433594 Z"/>
        </g>
        <path fill="#ffffff" fill-opacity="0" stroke="#000000" d="M 444 28 L 468 28 L 468 58 L 444 58 Z"/>
        <g>
            <path fill="#000000" stroke="none" d="M 459.00543 43.347168 Q 459.00543 45.42666 458.23947 46.524853 Q 457.47348 47.623047 455.9785 47.623047 Q 454.4835 47.623047 453.73288 46.531006 Q 452.98224 45.438965 452.98224 43.347168 Q 452.98224 41.2 453.71442 40.135643 Q 454.44653 39.07129 456.01538 39.07129 Q 457.54733 39.07129 458.27637 40.144875 Q 459.00543 41.218456 459.00543 43.347168 Z M 457.87955 43.347168 Q 457.87955 41.56299 457.4458 40.76626 Q 457.01205 39.969532 456.01538 39.969532 Q 454.9941 39.969532 454.54807 40.75703 Q 454.10202 41.544533 454.10202 43.347168 Q 454.10202 45.100586 454.5542 45.90962 Q 455.0064 46.718647 455.99075 46.718647 Q 456.96902 46.718647 457.4243 45.88808 Q 457.87955 45.057514 457.87955 43.347168 Z M 455.27097 44.08545 L 455.27097 42.553516 L 456.71677 42.553516 L 456.71677 44.08545 L 455.27097 44.08545 Z"/>
        </g>
        <path fill="#ffffff" fill-opacity="0" stroke="#000000" d="M 468 20 L 468 28"/>
        <g>
            <path fill="#000000" stroke="none" d="M 449.71875 24 L 449.71875 23.15039 L 452.29102 23.15039 L 452.29102 17.167969 Q 452.07422 17.625 451.2627 17.964844 Q 450.45117 18.304688 449.66602 18.304688 L 449.66602 17.4375 Q 450.5332 17.4375 451.3037 17.05664 Q 452.07422 16.675781 452.3789 16.095703 L 453.35153 16.095703 L 453.35153 23.15039 L 455.4199 23.15039 L 455.4199 24 L 449.71875 24 Z M 462.43945 21.398438 Q 462.43945 22.212889 462.09375 22.828125 Q 461.74805 23.44336 461.083 23.780273 Q 460.41797 24.117188 459.50977 24.117188 Q 458.35547 24.117188 457.64648 23.613281 Q 456.9375 23.109377 456.75 22.154297 L 457.8164 22.03125 Q 458.1504 23.25586 459.5332 23.25586 Q 460.3594 23.25586 460.85156 22.763672 Q 461.34375 22.271486 461.34375 21.421875 Q 461.34375 20.695313 460.85742 20.232422 Q 460.3711 19.769531 459.55667 19.769531 Q 459.1289 19.769531 458.7598 19.904297 Q 458.39063 20.039063 458.02148 20.361328 L 456.99023 20.361328 L 457.26566 16.095703 L 461.959 16.095703 L 461.959 16.945313 L 458.23828 16.945313 L 458.0684 19.435547 Q 458.75394 18.908203 459.7734 18.908203 Q 460.96875 18.908203 461.7041 19.59668 Q 462.43945 20.285156 462.43945 21.398438 Z"/>
        </g>
        <path fill="#ffffff" fill-opacity="0" stroke="#000000" d="M 468 28 L 564 28 L 564 58 L 468 58 Z"/>
        <g>
            <path fill="#000000" stroke="none" d="M 483.00543 43.347168 Q 483.00543 45.42666 482.2395 46.524853 Q 481.47348 47.623047 479.9785 47.623047 Q 478.48346 47.623047 477.73285 46.531006 Q 476.98227 45.438965 476.98227 43.347168 Q 476.98227 41.2 477.71445 40.135643 Q 478.44656 39.07129 480.0154 39.07129 Q 481.54733 39.07129 482.27637 40.144875 Q 483.00543 41.218456 483.00543 43.347168 Z M 481.87952 43.347168 Q 481.87952 41.56299 481.4458 40.76626 Q 481.01205 39.969532 480.0154 39.969532 Q 478.9941 39.969532 478.54803 40.75703 Q 478.10205 41.544533 478.10205 43.347168 Q 478.10205 45.100586 478.5542 45.90962 Q 479.00638 46.718647 479.99078 46.718647 Q 480.969 46.718647 481.42432 45.88808 Q 481.87952 45.057514 481.87952 43.347168 Z M 479.27097 44.08545 L 479.27097 42.553516 L 480.71677 42.553516 L 480.71677 44.08545 L 479.27097 44.08545 Z"/>
        </g>
        <g>
            <path fill="#000000" stroke="none" d="M 501.1853 47.5 L 501.1853 46.607906 L 503.8862 46.607906 L 503.8862 40.326366 Q 503.65854 40.80625 502.80646 41.163086 Q 501.95435 41.51992 501.12994 41.51992 L 501.12994 40.609375 Q 502.0405 40.609375 502.84955 40.209473 Q 503.65854 39.80957 503.9785 39.20049 L 504.9998 39.20049 L 504.9998 46.607906 L 507.17154 46.607906 L 507.17154 47.5 L 501.1853 47.5 Z"/>
        </g>
        <g>
            <path fill="#000000" stroke="none" d="M 531.0054 43.347168 Q 531.0054 45.42666 530.23944 46.524853 Q 529.47345 47.623047 527.97845 47.623047 Q 526.4834 47.623047 525.73285 46.531006 Q 524.98224 45.438965 524.98224 43.347168 Q 524.98224 41.2 525.71436 40.135643 Q 526.44653 39.07129 528.0154 39.07129 Q 529.5473 39.07129 530.27637 40.144875 Q 531.0054 41.218456 531.0054 43.347168 Z M 529.8795 43.347168 Q 529.8795 41.56299 529.4458 40.76626 Q 529.012 39.969532 528.0154 39.969532 Q 526.9941 39.969532 526.54803 40.75703 Q 526.102 41.544533 526.102 43.347168 Q 526.102 45.100586 526.5542 45.90962 Q 527.00635 46.718647 527.9907 46.718647 Q 528.969 46.718647 529.42426 45.88808 Q 529.8795 45.057514 529.8795 43.347168 Z M 527.27094 44.08545 L 527.27094 42.553516 L 528.71674 42.553516 L 528.71674 44.08545 L 527.27094 44.08545 Z"/>
        </g>
        <g>
            <path fill="#000000" stroke="none" d="M 549.1853 47.5 L 549.1853 46.607906 L 551.88617 46.607906 L 551.88617 40.326366 Q 551.6585 40.80625 550.8064 41.163086 Q 549.95435 41.51992 549.1299 41.51992 L 549.1299 40.609375 Q 550.04047 40.609375 550.8495 40.209473 Q 551.6585 39.80957 551.97845 39.20049 L 552.99976 39.20049 L 552.99976 46.607906 L 555.1715 46.607906 L 555.1715 47.5 L 549.1853 47.5 Z"/>
        </g>
        <path fill="#ffffff" fill-opacity="0" stroke="#000000" d="M 564 20 L 564 28"/>
        <g>
            <path fill="#000000" stroke="none" d="M 473.71875 24 L 473.71875 23.15039 L 476.29105 23.15039 L 476.29105 17.167969 Q 476.07422 17.625 475.2627 17.964844 Q 474.4512 18.304688 473.66602 18.304688 L 473.66602 17.4375 Q 474.5332 17.4375 475.30374 17.05664 Q 476.07422 16.675781 476.37888 16.095703 L 477.35156 16.095703 L 477.35156 23.15039 L 479.41992 23.15039 L 479.41992 24 L 473.71875 24 Z M 485.49023 22.13086 L 485.49023 24 L 484.43555 24 L 484.43555 22.13086 L 480.60352 22.13086 L 480.60352 21.310547 L 484.32422 16.095703 L 485.49023 16.095703 L 485.49023 21.298828 L 486.59183 21.298828 L 486.59183 22.13086 L 485.49023 22.13086 Z M 484.43555 17.238281 L 481.50586 21.298828 L 484.43555 21.298828 L 484.43555 17.238281 Z"/>
        </g>
        <g>
            <path fill="#000000" stroke="none" d="M 545.71875 24 L 545.71875 23.15039 L 548.291 23.15039 L 548.291 17.167969 Q 548.0742 17.625 547.2627 17.964844 Q 546.4512 18.304688 545.666 18.304688 L 545.666 17.4375 Q 546.5332 17.4375 547.3037 17.05664 Q 548.0742 16.675781 548.3789 16.095703 L 549.35156 16.095703 L 549.35156 23.15039 L 551.4199 23.15039 L 551.4199 24 L 545.71875 24 Z M 552.9199 24 L 552.9199 23.15039 L 555.4922 23.15039 L 555.4922 17.167969 Q 555.2754 17.625 554.46387 17.964844 Q 553.65234 18.304688 552.8672 18.304688 L 552.8672 17.4375 Q 553.7344 17.4375 554.5049 17.05664 Q 555.2754 16.675781 555.5801 16.095703 L 556.55273 16.095703 L 556.55273 23.15039 L 558.6211 23.15039 L 558.6211 24 L 552.9199 24 Z"/>
        </g>
        <path fill="#ffffff" fill-opacity="0" stroke="#000000" d="M 564 28 L 588 28 L 588 58 L 564 58 Z"/>
        <g>
            <path fill="#000000" stroke="none" d="M 573.1853 47.5 L 573.1853 46.607906 L 575.88617 46.607906 L 575.88617 40.326366 Q 575.6585 40.80625 574.8064 41.163086 Q 573.95435 41.51992 573.1299 41.51992 L 573.1299 40.609375 Q 574.04047 40.609375 574.8495 40.209473 Q 575.6585 39.80957 575.97845 39.20049 L 576.99976 39.20049 L 576.99976 46.607906 L 579.1715 46.607906 L 579.1715 47.5 L 573.1853 47.5 Z"/>
        </g>
        <path fill="#ffffff" fill-opacity="0" stroke="#000000" d="M 588 20 L 588 28"/>
        <g>
            <path fill="#000000" stroke="none" d="M 569.71875 24 L 569.71875 23.15039 L 572.291 23.15039 L 572.291 17.167969 Q 572.0742 17.625 571.2627 17.964844 Q 570.4512 18.304688 569.666 18.304688 L 569.666 17.4375 Q 570.5332 17.4375 571.3037 17.05664 Q 572.0742 16.675781 572.3789 16.095703 L 573.35156 16.095703 L 573.35156 23.15039 L 575.4199 23.15039 L 575.4199 24 L 569.71875 24 Z M 582.4629 20.044922 Q 582.4629 22.02539 581.7334 23.07129 Q 581.0039 24.117188 579.5801 24.117188 Q 578.15625 24.117188 577.4414 23.077148 Q 576.72656 22.03711 576.72656 20.044922 Q 576.72656 18 577.4238 16.986328 Q 578.1211 15.972656 579.61523 15.972656 Q 581.0742 15.972656 581.76855 16.995117 Q 582.4629 18.017578 582.4629 20.044922 Z M 581.3906 20.044922 Q 581.3906 18.345703 580.97754 17.586914 Q 580.56445 16.828125 579.61523 16.828125 Q 578.6426 16.828125 578.2178 17.578125 Q 577.79297 18.328125 577.79297 20.044922 Q 577.79297 21.714844 578.22363 22.48535 Q 578.6543 23.25586 579.5918 23.25586 Q 580.52344 23.25586 580.95703 22.464846 Q 581.3906 21.673828 581.3906 20.044922 Z M 578.90625 20.748047 L 578.90625 19.289063 L 580.2832 19.289063 L 580.2832 20.748047 L 578.90625 20.748047 Z"/>
        </g>
        <path fill="#ffffff" fill-opacity="0" stroke="#000000" d="M 588 28 L 708 28 L 708 58 L 588 58 Z"/>
        <g>
            <path fill="#000000" stroke="none" d="M 646.3266 47.5 L 644.0748 43.962402 L 642.61053 43.962402 L 642.61053 47.5 L 641.4355 47.5 L 641.4355 39.20049 L 644.4009 39.20049 Q 645.8344 39.20049 646.58496 39.79419 Q 647.3356 40.38789 647.3356 41.49531 Q 647.3356 42.41201 646.7603 43.03955 Q 646.18506 43.66709 645.2192 43.827053 L 647.6801 47.5 L 646.3266 47.5 Z M 646.1543 41.51377 Q 646.1543 40.141796 644.284 40.141796 L 642.61053 40.141796 L 642.61053 43.033394 L 644.3332 43.033394 Q 645.213 43.033394 645.68365 42.63965 Q 646.1543 42.2459 646.1543 41.51377 Z M 653.3402 47.5 L 653.3402 43.22412 Q 653.3402 42.3874 653.0172 41.981346 Q 652.6942 41.575294 651.9867 41.575294 Q 651.2238 41.575294 650.73474 42.13208 Q 650.2456 42.688866 650.2456 43.64248 L 650.2456 47.5 L 649.1382 47.5 L 649.1382 42.264355 Q 649.1382 41.101563 649.10126 40.843163 L 650.14716 40.843163 Q 650.1533 40.873924 650.1595 41.009277 Q 650.16565 41.14463 650.17487 41.31997 Q 650.1841 41.49531 650.1964 41.981346 L 650.21484 41.981346 Q 650.86084 40.720116 652.34357 40.720116 Q 653.4079 40.720116 653.93085 41.29536 Q 654.4538 41.870605 654.4538 43.06416 L 654.4538 47.5 L 653.3402 47.5 Z"/>
        </g>
        <path fill="#ffffff" fill-opacity="0" stroke="#000000" d="M 708 20 L 708 28"/>
        <g>
            <path fill="#000000" stroke="none" d="M 602.76855 19.88086 Q 602.76855 21.908203 601.98926 23.012695 Q 601.20996 24.117188 599.7803 24.117188 Q 598.8135 24.117188 598.23047 23.709959 Q 597.64746 23.302736 597.3955 22.394531 L 598.4033 22.236328 Q 598.7197 23.267578 599.79785 23.267578 Q 600.7002 23.267578 601.20703 22.450197 Q 601.71387 21.63281 601.7256 20.191406 Q 601.4912 20.71875 600.92285 21.038086 Q 600.3545 21.357422 599.6748 21.357422 Q 598.5674 21.357422 597.8965 20.610352 Q 597.2256 19.863281 597.2256 18.66211 Q 597.2256 17.419922 597.96094 16.69629 Q 598.6963 15.972656 599.97363 15.972656 Q 602.76855 15.972656 602.76855 19.88086 Z M 601.6201 18.949219 Q 601.6201 18.00586 601.15137 17.416992 Q 600.6826 16.828125 599.9385 16.828125 Q 599.17676 16.828125 598.7373 17.33789 Q 598.29785 17.847656 598.29785 18.66211 Q 598.29785 19.5 598.7373 20.012695 Q 599.17676 20.52539 599.92676 20.52539 Q 600.3721 20.52539 600.7676 20.323242 Q 601.1631 20.121094 601.3916 19.760742 Q 601.6201 19.40039 601.6201 18.949219 Z"/>
        </g>
        <g>
            <path fill="#000000" stroke="none" d="M 698.83887 21.398438 Q 698.83887 22.212889 698.49316 22.828125 Q 698.14746 23.44336 697.4824 23.780273 Q 696.81744 24.117188 695.9092 24.117188 Q 694.75494 24.117188 694.0459 23.613281 Q 693.33685 23.109377 693.1495 22.154297 L 694.2158 22.03125 Q 694.5498 23.25586 695.9326 23.25586 Q 696.7588 23.25586 697.2509 22.763672 Q 697.7432 22.271486 697.7432 21.421875 Q 697.7432 20.695313 697.25684 20.232422 Q 696.7705 19.769531 695.95605 19.769531 Q 695.5283 19.769531 695.1592 19.904297 Q 694.79004 20.039063 694.42096 20.361328 L 693.38965 20.361328 L 693.66504 16.095703 L 698.3584 16.095703 L 698.3584 16.945313 L 694.6377 16.945313 L 694.4678 19.435547 Q 695.1533 18.908203 696.17285 18.908203 Q 697.36816 18.908203 698.10345 19.59668 Q 698.83887 20.285156 698.83887 21.398438 Z"/>
        </g>
        <path fill="#ffffff" fill-opacity="0" stroke="#000000" d="M 708 28 L 828 28 L 828 58 L 708 58 Z"/>
        <g>
            <path fill="#000000" stroke="none" d="M 766.3266 47.5 L 764.0748 43.962402 L 762.61053 43.962402 L 762.61053 47.5 L 761.4355 47.5 L 761.4355 39.20049 L 764.4008 39.20049 Q 765.8345 39.20049 766.585 39.79419 Q 767.3356 40.38789 767.3356 41.49531 Q 767.3356 42.41201 766.7603 43.03955 Q 766.18506 43.66709 765.2191 43.827053 L 767.6801 47.5 L 766.3266 47.5 Z M 766.15424 41.51377 Q 766.15424 40.141796 764.284 40.141796 L 762.61053 40.141796 L 762.61053 43.033394 L 764.3332 43.033394 Q 765.213 43.033394 765.68365 42.63965 Q 766.15424 42.2459 766.15424 41.51377 Z M 773.30334 46.429493 Q 773.0019 47.075485 772.50354 47.367725 Q 772.0051 47.65996 771.26074 47.65996 Q 770.01794 47.65996 769.4334 46.804787 Q 768.849 45.949608 768.849 44.226948 Q 768.849 40.744728 771.26074 40.744728 Q 772.0051 40.744728 772.5066 41.009277 Q 773.008 41.273827 773.3095 41.87676 L 773.3218 41.87676 L 773.3095 40.947754 L 773.3095 38.369923 L 774.4169 38.369923 L 774.4169 46.12803 Q 774.4169 47.167774 774.4538 47.5 L 773.3957 47.5 Q 773.37103 47.407715 773.3526 47.05088 Q 773.33417 46.694042 773.33417 46.429493 L 773.30334 46.429493 Z M 769.99335 44.19004 Q 769.99335 45.55586 770.35944 46.18032 Q 770.72546 46.804787 771.5499 46.804787 Q 772.4481 46.804787 772.8787 46.155716 Q 773.3095 45.50664 773.3095 44.091602 Q 773.3095 42.76885 772.89417 42.165916 Q 772.4789 41.56299 771.5622 41.56299 Q 770.7316 41.56299 770.3625 42.19668 Q 769.99335 42.83037 769.99335 44.19004 Z"/>
        </g>
        <path fill="#ffffff" fill-opacity="0" stroke="#000000" d="M 828 20 L 828 28"/>
        <g>
            <path fill="#000000" stroke="none" d="M 721.8896 22.13086 L 721.8896 24 L 720.83496 24 L 720.83496 22.13086 L 717.0029 22.13086 L 717.0029 21.310547 L 720.72363 16.095703 L 721.8896 16.095703 L 721.8896 21.298828 L 722.9912 21.298828 L 722.9912 22.13086 L 721.8896 22.13086 Z M 720.83496 17.238281 L 717.9053 21.298828 L 720.83496 21.298828 L 720.83496 17.238281 Z"/>
        </g>
        <g>
            <path fill="#000000" stroke="none" d="M 818.8623 20.044922 Q 818.8623 22.02539 818.1328 23.07129 Q 817.4033 24.117188 815.9795 24.117188 Q 814.5556 24.117188 813.8408 23.077148 Q 813.126 22.03711 813.126 20.044922 Q 813.126 18 813.82324 16.986328 Q 814.5205 15.972656 816.01465 15.972656 Q 817.47363 15.972656 818.16797 16.995117 Q 818.8623 18.017578 818.8623 20.044922 Z M 817.7901 20.044922 Q 817.7901 18.345703 817.37695 17.586914 Q 816.9638 16.828125 816.01465 16.828125 Q 815.042 16.828125 814.6171 17.578125 Q 814.1924 18.328125 814.1924 20.044922 Q 814.1924 21.714844 814.62305 22.48535 Q 815.0537 23.25586 815.9912 23.25586 Q 816.92285 23.25586 817.35645 22.464846 Q 817.7901 21.673828 817.7901 20.044922 Z M 815.30566 20.748047 L 815.30566 19.289063 L 816.6826 19.289063 L 816.6826 20.748047 L 815.30566 20.748047 Z"/>
        </g>
    </g>
    <g/>
    <path fill="#000000" stroke="#000000" stroke-opacity="0" d="M 828 0 L 888 0"/>
    <path fill="#ffffff" fill-opacity="0" stroke="#000000" d="M 120 60 L 120 78"/>
    <path fill="#ffffff" fill-opacity="0" stroke="#000000" d="M 120 78 L 130 78"/>
    <g>
        <path fill="#000000" stroke="none" d="M 138.74911 76.66543 Q 138.74911 78.34502 137.977 79.23403 Q 137.20488 80.12305 135.74678 80.12305 Q 134.31943 80.12305 133.55962 79.22481 Q 132.7998 78.32656 132.7998 76.66543 Q 132.7998 74.94893 133.57808 74.08452 Q 134.35635 73.220116 135.78369 73.220116 Q 137.28487 73.220116 138.017 74.075294 Q 138.74911 74.930466 138.74911 76.66543 Z M 137.58633 76.66543 Q 137.58633 75.342674 137.16489 74.69053 Q 136.74345 74.038376 135.80215 74.038376 Q 134.84854 74.038376 134.40556 74.702835 Q 133.9626 75.36729 133.9626 76.66543 Q 133.9626 77.95742 134.40556 78.6311 Q 134.84854 79.30479 135.73447 79.30479 Q 136.71269 79.30479 137.1495 78.646484 Q 137.58633 77.98818 137.58633 76.66543 Z M 146.26729 76.64082 Q 146.26729 80.12305 143.85558 80.12305 Q 142.34209 80.12305 141.81914 78.99101 L 141.78838 78.99101 Q 141.81299 79.04024 141.81299 80.01231 L 141.81299 82.614746 L 140.69942 82.614746 L 140.69942 74.72129 Q 140.69942 73.67539 140.6625 73.34316 L 141.73917 73.34316 Q 141.74532 73.367775 141.75761 73.52466 Q 141.76993 73.68154 141.78531 73.986084 Q 141.80069 74.29063 141.80069 74.43828 L 141.8253 74.43828 Q 142.13292 73.79228 142.60973 73.500046 Q 143.08653 73.20781 143.85558 73.20781 Q 145.07373 73.20781 145.67052 74.04761 Q 146.26729 74.887405 146.26729 76.64082 Z M 145.12296 76.64082 Q 145.12296 75.25039 144.74767 74.65669 Q 144.37236 74.06299 143.5664 74.06299 Q 142.6374 74.06299 142.2252 74.73667 Q 141.81299 75.410355 141.81299 76.77617 Q 141.81299 78.086624 142.2252 78.6957 Q 142.6374 79.30479 143.55411 79.30479 Q 144.37236 79.30479 144.74767 78.683395 Q 145.12296 78.06201 145.12296 76.64082 Z"/>
    </g>
    <path fill="#ffffff" fill-opacity="0" stroke="#000000" d="M 516 60 L 516 78"/>
    <path fill="#ffffff" fill-opacity="0" stroke="#000000" d="M 516 78 L 526 78"/>
    <g>
        <path fill="#000000" stroke="none" d="M 532.5835 79.126366 L 534.9214 79.126366 L 534.9214 80 L 528.87976 80 L 528.87976 79.126366 L 531.4761 79.126366 L 531.4761 74.2168 L 529.5135 74.2168 L 529.5135 73.34316 L 532.5835 73.34316 L 532.5835 79.126366 Z M 531.353 72.05117 L 531.353 70.86992 L 532.5835 70.86992 L 532.5835 72.05117 L 531.353 72.05117 Z M 538.8281 80 L 538.8281 75.779495 Q 538.8281 74.83203 538.67737 74.45366 Q 538.5267 74.075294 538.1268 74.075294 Q 537.733 74.075294 537.49 74.66592 Q 537.24695 75.256546 537.24695 76.265526 L 537.24695 80 L 536.2072 80 L 536.2072 74.76436 Q 536.2072 73.60156 536.1703 73.34316 L 537.087 73.34316 L 537.1239 74.12451 L 537.1239 74.41982 L 537.1362 74.41982 Q 537.3454 73.79228 537.66534 73.5062 Q 537.9852 73.220116 538.46515 73.220116 Q 539.00653 73.220116 539.2742 73.51543 Q 539.5418 73.810745 539.6587 74.42598 L 539.67096 74.42598 Q 539.91705 73.77383 540.25854 73.49697 Q 540.6 73.220116 541.1229 73.220116 Q 541.84894 73.220116 542.16266 73.74922 Q 542.47644 74.27832 542.47644 75.56416 L 542.47644 80 L 541.4429 80 L 541.4429 75.779495 Q 541.4429 74.83203 541.2921 74.45366 Q 541.1414 74.075294 540.7415 74.075294 Q 540.33545 74.075294 540.0986 74.59209 Q 539.8617 75.10889 539.8617 76.14248 L 539.8617 80 L 538.8281 80 Z M 546.38934 80 L 546.38934 75.779495 Q 546.38934 74.83203 546.2386 74.45366 Q 546.0879 74.075294 545.688 74.075294 Q 545.2942 74.075294 545.0512 74.66592 Q 544.80817 75.256546 544.80817 76.265526 L 544.80817 80 L 543.76843 80 L 543.76843 74.76436 Q 543.76843 73.60156 543.7315 73.34316 L 544.6482 73.34316 L 544.6851 74.12451 L 544.6851 74.41982 L 544.69745 74.41982 Q 544.9066 73.79228 545.22656 73.5062 Q 545.54645 73.220116 546.02637 73.220116 Q 546.56775 73.220116 546.8354 73.51543 Q 547.103 73.810745 547.2199 74.42598 L 547.2322 74.42598 Q 547.4783 73.77383 547.81976 73.49697 Q 548.1612 73.220116 548.68414 73.220116 Q 549.41016 73.220116 549.7239 73.74922 Q 550.03766 74.27832 550.03766 75.56416 L 550.03766 80 L 549.0041 80 L 549.0041 75.779495 Q 549.0041 74.83203 548.85333 74.45366 Q 548.70264 74.075294 548.30273 74.075294 Q 547.89667 74.075294 547.6598 74.59209 Q 547.4229 75.10889 547.4229 76.14248 L 547.4229 80 L 546.38934 80 Z M 556.4485 78.0374 L 556.4485 80 L 555.34106 80 L 555.34106 78.0374 L 551.3174 78.0374 L 551.3174 77.17607 L 555.2241 71.700485 L 556.4485 71.700485 L 556.4485 77.16377 L 557.6051 77.16377 L 557.6051 78.0374 L 556.4485 78.0374 Z M 555.34106 72.90019 L 552.2649 77.16377 L 555.34106 77.16377 L 555.34106 72.90019 Z"/>
    </g>
</svg>
