<svg width="498.89764" height="75.59055" xmlns="http://www.w3.org/2000/svg">
    <defs/>
    <g>
        <g>
            <path fill="#000000" stroke="none" d="M 46.69816 34.015747 L 46.69816 33.218872 L 48.56795 33.218872 L 48.56795 27.573038 L 46.9117 28.755327 L 46.9117 27.869913 L 48.646076 26.677204 L 49.510654 26.677204 L 49.510654 33.218872 L 51.297115 33.218872 L 51.297115 34.015747 L 46.69816 34.015747 Z M 51.838787 34.015747 L 51.838787 33.218872 L 53.70858 33.218872 L 53.70858 27.573038 L 52.05233 28.755327 L 52.05233 27.869913 L 53.786705 26.677204 L 54.65129 26.677204 L 54.65129 33.218872 L 56.437744 33.218872 L 56.437744 34.015747 L 51.838787 34.015747 Z M 56.97941 34.015747 L 56.97941 33.218872 L 58.849205 33.218872 L 58.849205 27.573038 L 57.192955 28.755327 L 57.192955 27.869913 L 58.92733 26.677204 L 59.791912 26.677204 L 59.791912 33.218872 L 61.57837 33.218872 L 61.57837 34.015747 L 56.97941 34.015747 Z M 67.61482 30.343872 Q 67.61482 32.182415 66.966385 33.151165 Q 66.31795 34.119915 65.05232 34.119915 Q 63.7867 34.119915 63.151283 33.156372 Q 62.51587 32.19283 62.51587 30.343872 Q 62.51587 28.453247 63.133057 27.510538 Q 63.750248 26.56783 65.08357 26.56783 Q 66.38045 26.56783 66.997635 27.520954 Q 67.61482 28.47408 67.61482 30.343872 Z M 66.6617 30.343872 Q 66.6617 28.755327 66.29451 28.041786 Q 65.92732 27.328249 65.08357 27.328249 Q 64.218994 27.328249 63.84139 28.031372 Q 63.463783 28.734497 63.463783 30.343872 Q 63.463783 31.906374 63.846596 32.63033 Q 64.22941 33.35429 65.062744 33.35429 Q 65.89087 33.35429 66.27628 32.614704 Q 66.6617 31.875124 66.6617 30.343872 Z M 68.843994 34.015747 L 68.843994 33.218872 L 70.71378 33.218872 L 70.71378 27.573038 L 69.05753 28.755327 L 69.05753 27.869913 L 70.79191 26.677204 L 71.656494 26.677204 L 71.656494 33.218872 L 73.442955 33.218872 L 73.442955 34.015747 L 68.843994 34.015747 Z M 73.98461 34.015747 L 73.98461 33.218872 L 75.8544 33.218872 L 75.8544 27.573038 L 74.19815 28.755327 L 74.19815 27.869913 L 75.932526 26.677204 L 76.79711 26.677204 L 76.79711 33.218872 L 78.58357 33.218872 L 78.58357 34.015747 L 73.98461 34.015747 Z M 79.12524 34.015747 L 79.12524 33.218872 L 80.995026 33.218872 L 80.995026 27.573038 L 79.338776 28.755327 L 79.338776 27.869913 L 81.07315 26.677204 L 81.93774 26.677204 L 81.93774 33.218872 L 83.7242 33.218872 L 83.7242 34.015747 L 79.12524 34.015747 Z M 89.76066 30.343872 Q 89.76066 32.182415 89.11222 33.151165 Q 88.46378 34.119915 87.19816 34.119915 Q 85.93253 34.119915 85.29712 33.156372 Q 84.6617 32.19283 84.6617 30.343872 Q 84.6617 28.453247 85.278885 27.510538 Q 85.89607 26.56783 87.22941 26.56783 Q 88.52628 26.56783 89.14347 27.520954 Q 89.76066 28.47408 89.76066 30.343872 Z M 88.80753 30.343872 Q 88.80753 28.755327 88.44035 28.041786 Q 88.07316 27.328249 87.22941 27.328249 Q 86.36482 27.328249 85.98723 28.031372 Q 85.60962 28.734497 85.60962 30.343872 Q 85.60962 31.906374 85.992424 32.63033 Q 86.37524 33.35429 87.20857 33.35429 Q 88.0367 33.35429 88.42213 32.614704 Q 88.80753 31.875124 88.80753 30.343872 Z"/>
        </g>
        <path fill="none" stroke="#000000" stroke-width="1.0666667" d="M 7.5590553 22.677166 L 128.50394 22.677166 L 128.50394 37.795277 L 7.5590553 37.795277 Z"/>
        <g/>
    </g>
    <g>
        <path fill="none" stroke="#000000" stroke-width="1.0666667" d="M 128.50394 22.677166 L 173.85828 22.677166 L 173.85828 37.795277 L 128.50394 37.795277 Z"/>
        <g>
            <path fill="#000000" stroke="none" d="M 147.76704 31.192833 Q 147.76704 32.671997 147.116 33.395954 Q 146.46497 34.119915 145.22537 34.119915 Q 143.991 34.119915 143.3608 33.36731 Q 142.73059 32.614704 142.73059 31.192833 Q 142.73059 28.276163 145.25662 28.276163 Q 146.5483 28.276163 147.15767 28.9871 Q 147.76704 29.698038 147.76704 31.192833 Z M 146.78267 31.192833 Q 146.78267 30.026163 146.43631 29.497515 Q 146.08997 28.968872 145.27225 28.968872 Q 144.44934 28.968872 144.08215 29.507935 Q 143.71497 30.046997 143.71497 31.192833 Q 143.71497 32.307415 144.07693 32.86731 Q 144.43892 33.427204 145.21497 33.427204 Q 146.05872 33.427204 146.42068 32.88554 Q 146.78267 32.343872 146.78267 31.192833 Z M 153.69934 31.171997 Q 153.69934 34.119915 151.62642 34.119915 Q 150.32434 34.119915 149.87642 33.140747 L 149.85039 33.140747 Q 149.87122 33.182415 149.87122 34.026165 L 149.87122 36.22929 L 148.93372 36.22929 L 148.93372 29.531372 Q 148.93372 28.66158 148.90247 28.38033 L 149.80872 28.38033 Q 149.81392 28.401163 149.82434 28.528765 Q 149.83476 28.656372 149.84778 28.921997 Q 149.8608 29.187622 149.8608 29.28658 L 149.88164 29.28658 Q 150.13164 28.765747 150.54309 28.523558 Q 150.95454 28.281372 151.62642 28.281372 Q 152.66809 28.281372 153.18372 28.979286 Q 153.69934 29.677204 153.69934 31.171997 Z M 152.71497 31.192833 Q 152.71497 30.015747 152.39726 29.510538 Q 152.07954 29.00533 151.38684 29.00533 Q 150.82954 29.00533 150.51445 29.239702 Q 150.19934 29.47408 150.03528 29.971476 Q 149.87122 30.468872 149.87122 31.265745 Q 149.87122 32.375122 150.22539 32.901165 Q 150.57954 33.427204 151.37642 33.427204 Q 152.07434 33.427204 152.39465 32.914185 Q 152.71497 32.401165 152.71497 31.192833 Z M 159.66287 30.343872 Q 159.66287 32.182415 159.01443 33.151165 Q 158.366 34.119915 157.10037 34.119915 Q 155.83475 34.119915 155.19933 33.156372 Q 154.56392 32.19283 154.56392 30.343872 Q 154.56392 28.453247 155.1811 27.510538 Q 155.7983 26.56783 157.13162 26.56783 Q 158.4285 26.56783 159.04568 27.520954 Q 159.66287 28.47408 159.66287 30.343872 Z M 158.70975 30.343872 Q 158.70975 28.755327 158.34256 28.041786 Q 157.97537 27.328249 157.13162 27.328249 Q 156.26704 27.328249 155.88943 28.031372 Q 155.51183 28.734497 155.51183 30.343872 Q 155.51183 31.906374 155.89464 32.63033 Q 156.27745 33.35429 157.1108 33.35429 Q 157.93892 33.35429 158.32433 32.614704 Q 158.70975 31.875124 158.70975 30.343872 Z"/>
        </g>
    </g>
    <g>
        <path fill="#cccccc" stroke="#000000" stroke-width="1.0666667" d="M 173.85828 22.677166 L 309.92126 22.677166 L 309.92126 37.795277 L 173.85828 37.795277 Z"/>
    </g>
    <g>
        <g>
            <path fill="#000000" stroke="none" d="M 324.51248 34.015747 L 324.51248 33.218872 L 326.38226 33.218872 L 326.38226 27.573038 L 324.726 28.755327 L 324.726 27.869913 L 326.4604 26.677204 L 327.32498 26.677204 L 327.32498 33.218872 L 329.11145 33.218872 L 329.11145 34.015747 L 324.51248 34.015747 Z M 335.1479 30.343872 Q 335.1479 32.182415 334.49945 33.151165 Q 333.851 34.119915 332.5854 34.119915 Q 331.31976 34.119915 330.68436 33.156372 Q 330.04892 32.19283 330.04892 30.343872 Q 330.04892 28.453247 330.6661 27.510538 Q 331.2833 26.56783 332.61664 26.56783 Q 333.9135 26.56783 334.5307 27.520954 Q 335.1479 28.47408 335.1479 30.343872 Z M 334.19476 30.343872 Q 334.19476 28.755327 333.82758 28.041786 Q 333.4604 27.328249 332.61664 27.328249 Q 331.75204 27.328249 331.37445 28.031372 Q 330.99686 28.734497 330.99686 30.343872 Q 330.99686 31.906374 331.37967 32.63033 Q 331.76248 33.35429 332.5958 33.35429 Q 333.42392 33.35429 333.80936 32.614704 Q 334.19476 31.875124 334.19476 30.343872 Z M 336.37708 34.015747 L 336.37708 33.218872 L 338.24686 33.218872 L 338.24686 27.573038 L 336.5906 28.755327 L 336.5906 27.869913 L 338.32498 26.677204 L 339.18958 26.677204 L 339.18958 33.218872 L 340.97604 33.218872 L 340.97604 34.015747 L 336.37708 34.015747 Z"/>
        </g>
        <path fill="none" stroke="#000000" stroke-width="1.0666667" d="M 309.92126 22.677166 L 355.2756 22.677166 L 355.2756 37.795277 L 309.92126 37.795277 Z"/>
        <g/>
    </g>
    <g>
        <path fill="none" stroke="#000000" stroke-width="1.0666667" d="M 355.2756 22.677166 L 370.3937 22.677166 L 370.3937 37.795277 L 355.2756 37.795277 Z"/>
    </g>
    <g>
        <path fill="#cccccc" stroke="#000000" stroke-width="1.0666667" d="M 370.3937 22.677166 L 415.74805 22.677166 L 415.74805 37.795277 L 370.3937 37.795277 Z"/>
    </g>
    <g>
        <g>
            <path fill="#000000" stroke="none" d="M 421.1534 34.015747 L 421.1534 33.218872 L 423.0232 33.218872 L 423.0232 27.573038 L 421.36697 28.755327 L 421.36697 27.869913 L 423.10135 26.677204 L 423.96594 26.677204 L 423.96594 33.218872 L 425.7524 33.218872 L 425.7524 34.015747 L 421.1534 34.015747 Z"/>
        </g>
        <path fill="none" stroke="#000000" stroke-width="1.0666667" d="M 415.74805 22.677166 L 430.86615 22.677166 L 430.86615 37.795277 L 415.74805 37.795277 Z"/>
        <g/>
    </g>
    <g>
        <path fill="#cccccc" stroke="#000000" stroke-width="1.0666667" d="M 430.86615 22.677166 L 491.3386 22.677166 L 491.3386 37.795277 L 430.86615 37.795277 Z"/>
    </g>
    <g >
        <path fill="#000000" stroke="#000000" stroke-width="0.26666668" d="M 7.5590553 7.5590553 L 7.5590553 18.897638"/>
        <path fill="#000000" stroke="#000000" stroke-width="0.26666668" d="M 68.031494 7.5590553 L 68.031494 18.897638"/>
        <path fill="#000000" stroke="#000000" stroke-width="0.26666668" d="M 128.50394 7.5590553 L 128.50394 18.897638"/>
        <path fill="#000000" stroke="#000000" stroke-width="0.26666668" d="M 188.97638 7.5590553 L 188.97638 18.897638"/>
        <path fill="#000000" stroke="#000000" stroke-width="0.26666668" d="M 249.44882 7.5590553 L 249.44882 18.897638"/>
        <path fill="#000000" stroke="#000000" stroke-width="0.26666668" d="M 309.92126 7.5590553 L 309.92126 18.897638"/>
        <path fill="#000000" stroke="#000000" stroke-width="0.26666668" d="M 370.3937 7.5590553 L 370.3937 18.897638"/>
        <path fill="#000000" stroke="#000000" stroke-width="0.26666668" d="M 430.86615 7.5590553 L 430.86615 18.897638"/>
        <path fill="#000000" stroke="#000000" stroke-width="0.26666668" d="M 491.3386 7.5590553 L 491.3386 18.897638"/>
    </g>
    <g >
        <g>
            <path fill="#000000" stroke="none" d="M 9.998319 17.007874 L 9.998319 16.210999 L 11.86811 16.210999 L 11.86811 10.565165 L 10.211861 11.747456 L 10.211861 10.862039 L 11.946237 9.669332 L 12.810819 9.669332 L 12.810819 16.210999 L 14.597276 16.210999 L 14.597276 17.007874 L 9.998319 17.007874 Z M 20.602486 14.617248 Q 20.602486 15.778706 19.912382 16.445374 Q 19.222279 17.11204 17.99832 17.11204 Q 16.972277 17.11204 16.34207 16.664124 Q 15.711861 16.216208 15.545195 15.367249 L 16.49311 15.257874 Q 16.789986 16.346415 18.019152 16.346415 Q 18.77436 16.346415 19.201445 15.890685 Q 19.628529 15.434957 19.628529 14.638082 Q 19.628529 13.945374 19.198841 13.51829 Q 18.769152 13.091207 18.039986 13.091207 Q 17.659777 13.091207 17.331652 13.2109995 Q 17.003527 13.33079 16.675402 13.617248 L 15.758736 13.617248 L 16.003527 9.669332 L 20.175404 9.669332 L 20.175404 10.466207 L 16.857695 10.466207 L 16.71707 12.7943325 Q 17.326445 12.3255825 18.232695 12.3255825 Q 19.316029 12.3255825 19.959257 12.960999 Q 20.602486 13.596415 20.602486 14.617248 Z"/>
        </g>
        <g>
            <path fill="#000000" stroke="none" d="M 138.49268 10.429749 Q 137.36768 12.148498 136.90414 13.122457 Q 136.4406 14.096415 136.20883 15.044332 Q 135.97705 15.992249 135.97705 17.007874 L 134.9979 17.007874 Q 134.9979 15.601623 135.59424 14.046936 Q 136.1906 12.492249 137.58643 10.466207 L 133.64372 10.466207 L 133.64372 9.669332 L 138.49268 9.669332 L 138.49268 10.429749 Z"/>
        </g>
        <g>
            <path fill="#000000" stroke="none" d="M 168.81744 14.617248 Q 168.81744 15.778706 168.12733 16.445374 Q 167.43724 17.11204 166.21327 17.11204 Q 165.18724 17.11204 164.55702 16.664124 Q 163.92682 16.216208 163.76015 15.367249 L 164.70807 15.257874 Q 165.00494 16.346415 166.23412 16.346415 Q 166.98932 16.346415 167.4164 15.890685 Q 167.84349 15.434957 167.84349 14.638082 Q 167.84349 13.945374 167.4138 13.51829 Q 166.98412 13.091207 166.25494 13.091207 Q 165.87474 13.091207 165.54662 13.2109995 Q 165.21849 13.33079 164.89037 13.617248 L 163.9737 13.617248 L 164.21849 9.669332 L 168.39037 9.669332 L 168.39037 10.466207 L 165.07265 10.466207 L 164.93202 12.7943325 Q 165.5414 12.3255825 166.44765 12.3255825 Q 167.53099 12.3255825 168.17421 12.960999 Q 168.81744 13.596415 168.81744 14.617248 Z"/>
        </g>
        <g>
            <path fill="#000000" stroke="none" d="M 183.03973 15.3464155 L 183.03973 17.007874 L 182.15433 17.007874 L 182.15433 15.3464155 L 178.69598 15.3464155 L 178.69598 14.617248 L 182.05536 9.669332 L 183.03973 9.669332 L 183.03973 14.606832 L 184.07098 14.606832 L 184.07098 15.3464155 L 183.03973 15.3464155 Z M 182.15433 10.726624 Q 182.14389 10.757874 182.00848 11.002665 Q 181.87308 11.247456 181.80536 11.346414 L 179.92514 14.117248 L 179.64389 14.502665 L 179.56058 14.606832 L 182.15433 14.606832 L 182.15433 10.726624 Z"/>
        </g>
        <g>
            <path fill="#000000" stroke="none" d="M 297.24243 17.007874 L 297.24243 16.210999 L 299.1122 16.210999 L 299.1122 10.565165 L 297.45596 11.747456 L 297.45596 10.862039 L 299.19034 9.669332 L 300.05493 9.669332 L 300.05493 16.210999 L 301.8414 16.210999 L 301.8414 17.007874 L 297.24243 17.007874 Z M 302.89868 17.007874 L 302.89868 16.346415 Q 303.1643 15.7370405 303.54712 15.270894 Q 303.92993 14.804749 304.3518 14.427144 Q 304.77368 14.04954 305.18774 13.726624 Q 305.6018 13.403707 305.93512 13.08079 Q 306.26846 12.757874 306.47418 12.403707 Q 306.67993 12.04954 306.67993 11.601623 Q 306.67993 10.997457 306.32574 10.664124 Q 305.9716 10.33079 305.34137 10.33079 Q 304.74243 10.33079 304.3544 10.656311 Q 303.96637 10.981832 303.89868 11.570374 L 302.94034 11.481832 Q 303.0445 10.601624 303.68774 10.08079 Q 304.33096 9.559957 305.34137 9.559957 Q 306.45074 9.559957 307.04712 10.083394 Q 307.64346 10.606832 307.64346 11.570374 Q 307.64346 11.997457 307.44815 12.419332 Q 307.25284 12.8412075 306.86743 13.263081 Q 306.482 13.684957 305.39346 14.570374 Q 304.7945 15.059957 304.44034 15.453187 Q 304.08618 15.8464155 303.92993 16.210999 L 307.75806 16.210999 L 307.75806 17.007874 L 302.89868 17.007874 Z"/>
        </g>
        <g>
            <path fill="#000000" stroke="none" d="M 312.75635 17.007874 L 312.75635 16.210999 L 314.62613 16.210999 L 314.62613 10.565165 L 312.96988 11.747456 L 312.96988 10.862039 L 314.70425 9.669332 L 315.56885 9.669332 L 315.56885 16.210999 L 317.35532 16.210999 L 317.35532 17.007874 L 312.75635 17.007874 Z M 317.89697 17.007874 L 317.89697 16.210999 L 319.76675 16.210999 L 319.76675 10.565165 L 318.1105 11.747456 L 318.1105 10.862039 L 319.84488 9.669332 L 320.70947 9.669332 L 320.70947 16.210999 L 322.49594 16.210999 L 322.49594 17.007874 L 317.89697 17.007874 Z"/>
        </g>
        <g>
            <path fill="#000000" stroke="none" d="M 365.33722 14.960999 Q 365.33722 15.976624 364.6914 16.544333 Q 364.0456 17.11204 362.83725 17.11204 Q 361.66016 17.11204 360.9961 16.554749 Q 360.33203 15.997457 360.33203 14.971415 Q 360.33203 14.252665 360.7435 13.763081 Q 361.15497 13.273499 361.7956 13.169332 L 361.7956 13.148498 Q 361.19662 13.007874 360.85028 12.539124 Q 360.5039 12.070374 360.5039 11.4401655 Q 360.5039 10.601624 361.13153 10.08079 Q 361.75912 9.559957 362.81638 9.559957 Q 363.89975 9.559957 364.52734 10.070374 Q 365.15497 10.58079 365.15497 11.450582 Q 365.15497 12.08079 364.80597 12.54954 Q 364.45703 13.01829 363.85287 13.138082 L 363.85287 13.158915 Q 364.556 13.273499 364.94662 13.755269 Q 365.33722 14.23704 365.33722 14.960999 Z M 364.181 11.502665 Q 364.181 10.257874 362.81638 10.257874 Q 362.15497 10.257874 361.80862 10.570374 Q 361.46225 10.882874 361.46225 11.502665 Q 361.46225 12.132873 361.819 12.463602 Q 362.17578 12.7943325 362.82684 12.7943325 Q 363.4883 12.7943325 363.83466 12.489643 Q 364.181 12.184957 364.181 11.502665 Z M 364.36328 14.872457 Q 364.36328 14.190165 363.95703 13.843811 Q 363.55075 13.497457 362.81638 13.497457 Q 362.10287 13.497457 361.7018 13.869852 Q 361.30078 14.242249 361.30078 14.893289 Q 361.30078 16.408915 362.84766 16.408915 Q 363.61325 16.408915 363.98828 16.041727 Q 364.36328 15.6745405 364.36328 14.872457 Z"/>
        </g>
        <g>
            <path fill="#000000" stroke="none" d="M 380.38245 10.429749 Q 379.25745 12.148498 378.7939 13.122457 Q 378.33035 14.096415 378.09857 15.044332 Q 377.86682 15.992249 377.86682 17.007874 L 376.88763 17.007874 Q 376.88763 15.601623 377.484 14.046936 Q 378.08035 12.492249 379.47623 10.466207 L 375.53348 10.466207 L 375.53348 9.669332 L 380.38245 9.669332 L 380.38245 10.429749 Z"/>
        </g>
        <g>
            <path fill="#000000" stroke="none" d="M 410.70724 14.617248 Q 410.70724 15.778706 410.01715 16.445374 Q 409.327 17.11204 408.1031 17.11204 Q 407.077 17.11204 406.4468 16.664124 Q 405.81662 16.216208 405.64993 15.367249 L 406.59784 15.257874 Q 406.8947 16.346415 408.12387 16.346415 Q 408.8791 16.346415 409.30618 15.890685 Q 409.73325 15.434957 409.73325 14.638082 Q 409.73325 13.945374 409.30356 13.51829 Q 408.87387 13.091207 408.14474 13.091207 Q 407.7645 13.091207 407.43637 13.2109995 Q 407.10825 13.33079 406.78012 13.617248 L 405.86346 13.617248 L 406.10825 9.669332 L 410.28015 9.669332 L 410.28015 10.466207 L 406.96243 10.466207 L 406.8218 12.7943325 Q 407.43118 12.3255825 408.33746 12.3255825 Q 409.42075 12.3255825 410.064 12.960999 Q 410.70724 13.596415 410.70724 14.617248 Z"/>
        </g>
        <g>
            <path fill="#000000" stroke="none" d="M 424.92947 15.3464155 L 424.92947 17.007874 L 424.04407 17.007874 L 424.04407 15.3464155 L 420.58572 15.3464155 L 420.58572 14.617248 L 423.9451 9.669332 L 424.92947 9.669332 L 424.92947 14.606832 L 425.96072 14.606832 L 425.96072 15.3464155 L 424.92947 15.3464155 Z M 424.04407 10.726624 Q 424.03366 10.757874 423.89822 11.002665 Q 423.76282 11.247456 423.69513 11.346414 L 421.81494 14.117248 L 421.53366 14.502665 L 421.4503 14.606832 L 424.04407 14.606832 L 424.04407 10.726624 Z"/>
        </g>
        <g>
            <path fill="#000000" stroke="none" d="M 486.329 13.335999 Q 486.329 15.1745405 485.68057 16.14329 Q 485.03214 17.11204 483.7665 17.11204 Q 482.5009 17.11204 481.86548 16.148499 Q 481.23004 15.184957 481.23004 13.335999 Q 481.23004 11.445374 481.84723 10.502665 Q 482.4644 9.559957 483.79776 9.559957 Q 485.09464 9.559957 485.71182 10.513082 Q 486.329 11.466207 486.329 13.335999 Z M 485.3759 13.335999 Q 485.3759 11.747456 485.0087 11.033915 Q 484.6415 10.320374 483.79776 10.320374 Q 482.9332 10.320374 482.55557 11.023499 Q 482.17798 11.726624 482.17798 13.335999 Q 482.17798 14.898499 482.5608 15.622457 Q 482.9436 16.346415 483.77692 16.346415 Q 484.60504 16.346415 484.99048 15.606832 Q 485.3759 14.867249 485.3759 13.335999 Z"/>
        </g>
    </g>
    <g >
        <g>
            <path fill="#000000" stroke="none" d="M 244.43924 13.335999 Q 244.43924 15.1745405 243.7908 16.14329 Q 243.1424 17.11204 241.87674 17.11204 Q 240.61113 17.11204 239.97571 16.148499 Q 239.3403 15.184957 239.3403 13.335999 Q 239.3403 11.445374 239.95749 10.502665 Q 240.57466 9.559957 241.908 9.559957 Q 243.20488 9.559957 243.82205 10.513082 Q 244.43924 11.466207 244.43924 13.335999 Z M 243.48613 13.335999 Q 243.48613 11.747456 243.11894 11.033915 Q 242.75175 10.320374 241.908 10.320374 Q 241.04344 10.320374 240.66583 11.023499 Q 240.28821 11.726624 240.28821 13.335999 Q 240.28821 14.898499 240.67102 15.622457 Q 241.05383 16.346415 241.88718 16.346415 Q 242.7153 16.346415 243.10071 15.606832 Q 243.48613 14.867249 243.48613 13.335999 Z"/>
        </g>
        <path fill="#000000" stroke="#000000" stroke-width="0.6666667" d="M 249.44882 7.5590553 L 249.44882 18.897638"/>
        <g>
            <path fill="#000000" stroke="none" d="M 251.88806 17.007874 L 251.88806 16.210999 L 253.75787 16.210999 L 253.75787 10.565165 L 252.10164 11.747456 L 252.10164 10.862039 L 253.836 9.669332 L 254.70059 9.669332 L 254.70059 16.210999 L 256.48703 16.210999 L 256.48703 17.007874 L 251.88806 17.007874 Z M 262.49225 14.617248 Q 262.49225 15.778706 261.80215 16.445374 Q 261.11203 17.11204 259.8881 17.11204 Q 258.86203 17.11204 258.23184 16.664124 Q 257.60162 16.216208 257.43497 15.367249 L 258.38287 15.257874 Q 258.67975 16.346415 259.9089 16.346415 Q 260.66412 16.346415 261.09122 15.890685 Q 261.51828 15.434957 261.51828 14.638082 Q 261.51828 13.945374 261.0886 13.51829 Q 260.6589 13.091207 259.92975 13.091207 Q 259.54953 13.091207 259.2214 13.2109995 Q 258.89328 13.33079 258.56516 13.617248 L 257.6485 13.617248 L 257.89328 9.669332 L 262.06516 9.669332 L 262.06516 10.466207 L 258.74747 10.466207 L 258.60684 12.7943325 Q 259.21622 12.3255825 260.12247 12.3255825 Q 261.20578 12.3255825 261.84903 12.960999 Q 262.49225 13.596415 262.49225 14.617248 Z"/>
        </g>
    </g>
    <g >
        <g>
            <path fill="none" stroke="#000000" stroke-width="1.0666667" stroke-linecap="square" d="M 362.83466 41.574802 L 362.83466 60.472443"/>
            <path fill="none" stroke="#000000" stroke-width="1.0666667" stroke-linecap="square" d="M 362.83466 60.472443 L 476.37164 60.472443"/>
            <g>
                <path fill="#000000" stroke="none" d="M 485.63556 61.429047 Q 485.63556 62.908215 484.98456 63.632175 Q 484.33344 64.35613 483.0939 64.35613 Q 481.85956 64.35613 481.22928 63.603535 Q 480.5991 62.85092 480.5991 61.429047 Q 480.5991 58.512383 483.12515 58.512383 Q 484.4168 58.512383 485.0262 59.22332 Q 485.63556 59.934258 485.63556 61.429047 Z M 484.65118 61.429047 Q 484.65118 60.262386 484.30484 59.733738 Q 483.95847 59.205093 483.14078 59.205093 Q 482.31784 59.205093 481.95065 59.744152 Q 481.58347 60.28322 481.58347 61.429047 Q 481.58347 62.543636 481.94547 63.103527 Q 482.30743 63.663425 483.08347 63.663425 Q 483.92722 63.663425 484.2892 63.12176 Q 484.65118 62.58009 484.65118 61.429047 Z M 491.56784 61.40822 Q 491.56784 64.35613 489.49493 64.35613 Q 488.19287 64.35613 487.74493 63.37697 L 487.71887 63.37697 Q 487.73972 63.418633 487.73972 64.26238 L 487.73972 66.46551 L 486.80222 66.46551 L 486.80222 59.767593 Q 486.80222 58.8978 486.77097 58.61655 L 487.67722 58.61655 Q 487.6824 58.63739 487.6928 58.764988 Q 487.70328 58.892593 487.71628 59.158222 Q 487.7293 59.42384 487.7293 59.5228 L 487.75012 59.5228 Q 488.0001 59.00197 488.4116 58.75978 Q 488.82306 58.51759 489.49493 58.51759 Q 490.5366 58.51759 491.0522 59.215515 Q 491.56784 59.913425 491.56784 61.40822 Z M 490.58344 61.429047 Q 490.58344 60.251972 490.26578 59.74676 Q 489.9481 59.24155 489.2553 59.24155 Q 488.69806 59.24155 488.3829 59.475925 Q 488.06784 59.7103 487.90378 60.2077 Q 487.73972 60.705097 487.73972 61.50197 Q 487.73972 62.611343 488.09387 63.137386 Q 488.44803 63.663425 489.2449 63.663425 Q 489.94284 63.663425 490.26315 63.150406 Q 490.58344 62.63739 490.58344 61.429047 Z M 492.82828 64.25197 L 492.82828 63.455093 L 494.69806 63.455093 L 494.69806 57.80926 L 493.04184 58.99155 L 493.04184 58.106136 L 494.77618 56.91342 L 495.64078 56.91342 L 495.64078 63.455093 L 497.42725 63.455093 L 497.42725 64.25197 L 492.82828 64.25197 Z"/>
            </g>
        </g>
    </g>
</svg>
