<svg width="888" height="80" xmlns="http://www.w3.org/2000/svg">
    <defs/>
    <g>
        <path fill="#d3d3d3" stroke="#000000" d="M 60 20 L 60 28"/>
        <path fill="#d3d3d3" stroke="#000000" d="M 60 28 L 156 28 L 156 58 L 60 58 Z"/>
        <g>
            <path fill="#000000" stroke="none" d="M 98.765335 47.5 L 96.51358 43.962402 L 95.04932 43.962402 L 95.04932 47.5 L 93.874214 47.5 L 93.874214 39.20049 L 96.83965 39.20049 Q 98.27315 39.20049 99.02374 39.79419 Q 99.77431 40.38789 99.77431 41.49531 Q 99.77431 42.41201 99.19908 43.03955 Q 98.62383 43.66709 97.65792 43.827053 L 100.11886 47.5 L 98.765335 47.5 Z M 98.59308 41.51377 Q 98.59308 40.141796 96.72276 40.141796 L 95.04932 40.141796 L 95.04932 43.033394 L 96.77197 43.033394 Q 97.65176 43.033394 98.12241 42.63965 Q 98.59308 42.2459 98.59308 41.51377 Z M 101.43544 47.5 L 101.43544 39.20049 L 107.08945 39.20049 L 107.08945 40.160255 L 102.61054 40.160255 L 102.61054 42.756542 L 106.72031 42.756542 L 106.72031 43.704002 L 102.61054 43.704002 L 102.61054 46.54023 L 107.3417 46.54023 L 107.3417 47.5 L 101.43544 47.5 Z M 114.93984 45.223633 Q 114.93984 46.35566 114.11235 46.989357 Q 113.28487 47.623047 111.75293 47.623047 Q 108.941315 47.623047 108.48604 45.42051 L 109.624214 45.19287 Q 109.796486 45.986523 110.33789 46.346436 Q 110.879295 46.70635 111.78369 46.70635 Q 112.76192 46.70635 113.269485 46.3249 Q 113.77705 45.94346 113.77705 45.242085 Q 113.77705 44.811424 113.5771 44.54072 Q 113.377144 44.27002 113.05107 44.097755 Q 112.725 43.925488 112.31587 43.81782 Q 111.90673 43.710155 111.48838 43.605564 Q 110.497856 43.347168 110.076416 43.144142 Q 109.654976 42.941113 109.40273 42.679638 Q 109.1505 42.418163 109.021286 42.079784 Q 108.89209 41.741405 108.89209 41.286133 Q 108.89209 40.22178 109.639595 39.646534 Q 110.38711 39.07129 111.78369 39.07129 Q 113.08799 39.07129 113.77705 39.52656 Q 114.46611 39.981834 114.73682 41.064648 L 113.58018 41.267677 Q 113.43252 40.578613 112.989555 40.26792 Q 112.54658 39.957226 111.77755 39.957226 Q 110.036415 39.957226 110.036415 41.267677 Q 110.036415 41.636818 110.19946 41.86753 Q 110.3625 42.098244 110.64243 42.248974 Q 110.92236 42.399708 111.29458 42.498146 Q 111.666794 42.59658 112.09131 42.707325 Q 112.94648 42.922657 113.32178 43.067238 Q 113.69707 43.21182 113.9893 43.39638 Q 114.28154 43.580956 114.49072 43.833202 Q 114.699905 44.08545 114.81987 44.42383 Q 114.93984 44.76221 114.93984 45.223633 Z M 122.34727 43.347168 Q 122.34727 45.42666 121.5813 46.524853 Q 120.81534 47.623047 119.32031 47.623047 Q 117.82529 47.623047 117.07471 46.531006 Q 116.32413 45.438965 116.32413 43.347168 Q 116.32413 41.2 117.05626 40.135643 Q 117.78838 39.07129 119.35724 39.07129 Q 120.88916 39.07129 121.61822 40.144875 Q 122.34727 41.218456 122.34727 43.347168 Z M 121.22139 43.347168 Q 121.22139 41.56299 120.78765 40.76626 Q 120.35391 39.969532 119.35724 39.969532 Q 118.33594 39.969532 117.88989 40.75703 Q 117.44385 41.544533 117.44385 43.347168 Q 117.44385 45.100586 117.89605 45.90962 Q 118.34824 46.718647 119.33262 46.718647 Q 120.310844 46.718647 120.76611 45.88808 Q 121.22139 45.057514 121.22139 43.347168 Z M 118.6128 44.08545 L 118.6128 42.553516 L 120.05859 42.553516 L 120.05859 44.08545 L 118.6128 44.08545 Z"/>
        </g>
        <path fill="#d3d3d3" stroke="#000000" d="M 156 20 L 156 28"/>
        <g>
            <path fill="#000000" stroke="none" d="M 71.23828 21.832031 Q 71.23828 22.921873 70.5 23.519531 Q 69.76172 24.117188 68.4375 24.117188 Q 67.18359 24.117188 66.43359 23.548828 Q 65.68359 22.98047 65.54883 21.878906 L 66.63867 21.779297 Q 66.84961 23.244139 68.4375 23.244139 Q 69.234375 23.244139 69.68848 22.875 Q 70.14258 22.50586 70.14258 21.796875 Q 70.14258 21.357422 69.87598 21.055664 Q 69.609375 20.753906 69.15234 20.592773 Q 68.69531 20.43164 68.12695 20.43164 L 67.5293 20.43164 L 67.5293 19.517578 L 68.103516 19.517578 Q 68.60742 19.517578 69.02637 19.350586 Q 69.44531 19.183594 69.68555 18.878906 Q 69.92578 18.574219 69.92578 18.158203 Q 69.92578 17.53711 69.53613 17.188477 Q 69.146484 16.839844 68.37891 16.839844 Q 67.68164 16.839844 67.25098 17.197266 Q 66.82031 17.554688 66.75 18.205078 L 65.68945 18.123047 Q 65.80664 17.109375 66.53027 16.541016 Q 67.25391 15.972656 68.390625 15.972656 Q 69.63281 15.972656 70.32129 16.520508 Q 71.009766 17.06836 71.009766 18.046875 Q 71.009766 18.74414 70.546875 19.259766 Q 70.083984 19.77539 69.28125 19.939453 L 69.28125 19.96289 Q 70.166016 20.0625 70.70215 20.583984 Q 71.23828 21.105469 71.23828 21.832031 Z M 72.91992 24 L 72.91992 23.15039 L 75.49219 23.15039 L 75.49219 17.167969 Q 75.27539 17.625 74.46387 17.964844 Q 73.65234 18.304688 72.86719 18.304688 L 72.86719 17.4375 Q 73.734375 17.4375 74.50488 17.05664 Q 75.27539 16.675781 75.58008 16.095703 L 76.552734 16.095703 L 76.552734 23.15039 L 78.62109 23.15039 L 78.62109 24 L 72.91992 24 Z"/>
        </g>
        <g>
            <path fill="#000000" stroke="none" d="M 137.64258 24 L 137.64258 23.314453 Q 137.92969 22.675781 138.53613 22.028322 Q 139.14258 21.38086 140.18555 20.548828 Q 141.11719 19.804688 141.52734 19.253906 Q 141.9375 18.703125 141.9375 18.19336 Q 141.9375 17.542969 141.5332 17.191406 Q 141.1289 16.839844 140.3789 16.839844 Q 139.71094 16.839844 139.29785 17.206055 Q 138.88477 17.572266 138.8086 18.234375 L 137.73047 18.134766 Q 137.84766 17.138672 138.54492 16.555664 Q 139.24219 15.972656 140.3789 15.972656 Q 141.62695 15.972656 142.32422 16.535156 Q 143.02148 17.097656 143.02148 18.128906 Q 143.02148 18.802734 142.57617 19.473633 Q 142.13086 20.144531 141.2461 20.847656 Q 140.03906 21.808594 139.57324 22.262695 Q 139.10742 22.716797 138.91406 23.144533 L 143.15039 23.144533 L 143.15039 24 L 137.64258 24 Z M 150.41016 21.785156 Q 150.41016 22.863281 149.68066 23.490234 Q 148.95117 24.117188 147.59766 24.117188 Q 146.27344 24.117188 145.52637 23.501951 Q 144.7793 22.88672 144.7793 21.796875 Q 144.7793 21.041016 145.24219 20.510742 Q 145.70508 19.980469 146.42578 19.857422 L 146.42578 19.833984 Q 145.76953 19.675781 145.3711 19.166016 Q 144.97266 18.65625 144.97266 18 Q 144.97266 17.425781 145.29785 16.957031 Q 145.62305 16.488281 146.21484 16.230469 Q 146.80664 15.972656 147.57422 15.972656 Q 148.37695 15.972656 148.97461 16.233398 Q 149.57227 16.49414 149.88867 16.957031 Q 150.20508 17.419922 150.20508 18.011719 Q 150.20508 18.673828 149.80078 19.183594 Q 149.39648 19.69336 148.74023 19.822266 L 148.74023 19.845703 Q 149.50195 19.96875 149.95605 20.487305 Q 150.41016 21.00586 150.41016 21.785156 Z M 149.10938 18.070313 Q 149.10938 17.419922 148.71387 17.088867 Q 148.31836 16.757813 147.57422 16.757813 Q 146.85352 16.757813 146.45215 17.091797 Q 146.05078 17.425781 146.05078 18.070313 Q 146.05078 18.720703 146.45508 19.078125 Q 146.85938 19.435547 147.58594 19.435547 Q 149.10938 19.435547 149.10938 18.070313 Z M 149.31445 21.685547 Q 149.31445 20.982422 148.85742 20.604492 Q 148.40039 20.226563 147.57422 20.226563 Q 146.77734 20.226563 146.32324 20.63379 Q 145.86914 21.041016 145.86914 21.708984 Q 145.86914 22.499998 146.31152 22.913086 Q 146.7539 23.326172 147.60938 23.326172 Q 148.4707 23.326172 148.89258 22.921873 Q 149.31445 22.517578 149.31445 21.685547 Z"/>
        </g>
        <path fill="#ffffff" fill-opacity="0" stroke="#000000" d="M 156 28 L 252 28 L 252 58 L 156 58 Z"/>
        <g>
            <path fill="#000000" stroke="none" d="M 189.87419 47.5 L 189.87419 39.20049 L 195.52821 39.20049 L 195.52821 40.160255 L 191.04932 40.160255 L 191.04932 42.756542 L 195.15909 42.756542 L 195.15909 43.704002 L 191.04932 43.704002 L 191.04932 46.54023 L 195.78047 46.54023 L 195.78047 47.5 L 189.87419 47.5 Z M 203.36015 43.26719 Q 203.36015 45.30361 202.41579 46.401806 Q 201.47139 47.5 199.7118 47.5 L 197.43544 47.5 L 197.43544 39.20049 L 199.34883 39.20049 Q 201.37294 39.20049 202.36655 40.212547 Q 203.36015 41.22461 203.36015 43.26719 Z M 202.17891 43.26719 Q 202.17891 41.642967 201.50215 40.90161 Q 200.82538 40.160255 199.35498 40.160255 L 198.61055 40.160255 L 198.61055 46.54023 L 199.60721 46.54023 Q 200.91153 46.54023 201.54521 45.721973 Q 202.17891 44.90371 202.17891 43.26719 Z M 210.77373 46.68174 Q 209.36482 47.623047 207.93135 47.623047 Q 206.39326 47.623047 205.54425 46.48179 Q 204.69522 45.34053 204.69522 43.310253 Q 204.69522 41.175392 205.50732 40.12334 Q 206.31943 39.07129 207.9498 39.07129 Q 210.07852 39.07129 210.78604 41.107716 L 209.73398 41.452248 Q 209.24179 40.031055 207.96211 40.031055 Q 206.92236 40.031055 206.4271 40.80625 Q 205.93185 41.581444 205.93185 43.310253 Q 205.93185 46.669434 208.02979 46.669434 Q 208.44815 46.669434 208.89726 46.54023 Q 209.34639 46.411034 209.6294 46.21416 L 209.6294 44.146976 L 207.82677 44.146976 L 207.82677 43.162598 L 210.77373 43.162598 L 210.77373 46.68174 Z M 212.5579 47.5 L 212.5579 39.20049 L 218.21193 39.20049 L 218.21193 40.160255 L 213.733 40.160255 L 213.733 42.756542 L 217.84277 42.756542 L 217.84277 43.704002 L 213.733 43.704002 L 213.733 46.54023 L 218.46416 46.54023 L 218.46416 47.5 L 212.5579 47.5 Z"/>
        </g>
        <path fill="#ffffff" fill-opacity="0" stroke="#000000" d="M 252 20 L 252 28"/>
        <g>
            <path fill="#000000" stroke="none" d="M 161.64258 24 L 161.64258 23.314453 Q 161.92969 22.675781 162.53613 22.028322 Q 163.14258 21.38086 164.18555 20.548828 Q 165.11719 19.804688 165.52734 19.253906 Q 165.9375 18.703125 165.9375 18.19336 Q 165.9375 17.542969 165.5332 17.191406 Q 165.1289 16.839844 164.3789 16.839844 Q 163.71094 16.839844 163.29785 17.206055 Q 162.88477 17.572266 162.8086 18.234375 L 161.73047 18.134766 Q 161.84766 17.138672 162.54492 16.555664 Q 163.24219 15.972656 164.3789 15.972656 Q 165.62695 15.972656 166.32422 16.535156 Q 167.02148 17.097656 167.02148 18.128906 Q 167.02148 18.802734 166.57617 19.473633 Q 166.13086 20.144531 165.2461 20.847656 Q 164.03906 21.808594 163.57324 22.262695 Q 163.10742 22.716797 162.91406 23.144533 L 167.15039 23.144533 L 167.15039 24 L 161.64258 24 Z M 174.26367 16.910156 Q 171.49219 20.894531 171.49219 24 L 170.39063 24 Q 170.39063 22.458984 171.1084 20.674805 Q 171.82617 18.890625 173.24416 16.945313 L 168.92578 16.945313 L 168.92578 16.095703 L 174.26367 16.095703 L 174.26367 16.910156 Z"/>
        </g>
        <g>
            <path fill="#000000" stroke="none" d="M 233.64258 24 L 233.64258 23.314453 Q 233.92969 22.675781 234.53615 22.028322 Q 235.14258 21.38086 236.18553 20.548828 Q 237.11719 19.804688 237.52734 19.253906 Q 237.9375 18.703125 237.9375 18.19336 Q 237.9375 17.542969 237.5332 17.191406 Q 237.1289 16.839844 236.3789 16.839844 Q 235.71094 16.839844 235.29785 17.206055 Q 234.88477 17.572266 234.8086 18.234375 L 233.73048 18.134766 Q 233.84767 17.138672 234.54492 16.555664 Q 235.24219 15.972656 236.3789 15.972656 Q 237.62697 15.972656 238.32422 16.535156 Q 239.02148 17.097656 239.02148 18.128906 Q 239.02148 18.802734 238.57617 19.473633 Q 238.13086 20.144531 237.2461 20.847656 Q 236.03906 21.808594 235.57324 22.262695 Q 235.10744 22.716797 234.91406 23.144533 L 239.15039 23.144533 L 239.15039 24 L 233.64258 24 Z M 245.49023 22.13086 L 245.49023 24 L 244.43553 24 L 244.43553 22.13086 L 240.60353 22.13086 L 240.60353 21.310547 L 244.3242 16.095703 L 245.49023 16.095703 L 245.49023 21.298828 L 246.5918 21.298828 L 246.5918 22.13086 L 245.49023 22.13086 Z M 244.43553 17.238281 L 241.50586 21.298828 L 244.43553 21.298828 L 244.43553 17.238281 Z"/>
        </g>
        <path fill="#ffffff" fill-opacity="0" stroke="#000000" d="M 252 28 L 348 28 L 348 58 L 252 58 Z"/>
        <g>
            <path fill="#000000" stroke="none" d="M 277.8977 40.160255 L 277.8977 47.5 L 276.72876 47.5 L 276.72876 40.160255 L 274.0033 40.160255 L 274.0033 39.20049 L 280.6232 39.20049 L 280.6232 40.160255 L 277.8977 40.160255 Z M 286.48022 47.5 L 286.48022 43.66709 L 283.2687 43.66709 L 283.2687 47.5 L 282.0936 47.5 L 282.0936 39.20049 L 283.2687 39.20049 L 283.2687 42.682716 L 286.48022 42.682716 L 286.48022 39.20049 L 287.65533 39.20049 L 287.65533 47.5 L 286.48022 47.5 Z M 294.92123 47.5 L 293.64154 47.5 Q 293.18628 45.801952 292.9494 44.916016 Q 292.71252 44.03008 292.448 42.848827 Q 292.26956 43.61787 292.11884 44.239258 Q 291.9681 44.860645 291.23596 47.5 L 289.9563 47.5 L 288.65814 39.20049 L 289.82092 39.20049 L 290.49155 44.337696 Q 290.58997 45.143654 290.69458 46.466408 Q 290.89145 45.617382 291.0237 45.06367 Q 291.156 44.509964 291.9066 41.772167 L 292.98325 41.772167 Q 293.40775 43.328712 293.65076 44.2208 Q 293.8938 45.112892 294.19525 46.466408 L 294.41058 44.337696 L 295.0504 39.20049 L 296.21323 39.20049 L 294.92123 47.5 Z M 297.46216 39.20049 L 302.52554 39.20049 L 302.52554 40.160255 L 300.5814 40.160255 L 300.5814 46.54023 L 302.52554 46.54023 L 302.52554 47.5 L 297.46216 47.5 L 297.46216 46.54023 L 299.4063 46.54023 L 299.4063 40.160255 L 297.46216 40.160255 L 297.46216 39.20049 Z M 310.702 43.26719 Q 310.702 45.30361 309.7576 46.401806 Q 308.81323 47.5 307.05365 47.5 L 304.77728 47.5 L 304.77728 39.20049 L 306.69067 39.20049 Q 308.71478 39.20049 309.7084 40.212547 Q 310.702 41.22461 310.702 43.26719 Z M 309.52075 43.26719 Q 309.52075 41.642967 308.844 40.90161 Q 308.16724 40.160255 306.6968 40.160255 L 305.9524 40.160255 L 305.9524 46.54023 L 306.94907 46.54023 Q 308.25336 46.54023 308.88705 45.721973 Q 309.52075 44.90371 309.52075 43.26719 Z M 315.70386 40.160255 L 315.70386 47.5 L 314.5349 47.5 L 314.5349 40.160255 L 311.80945 40.160255 L 311.80945 39.20049 L 318.42935 39.20049 L 318.42935 40.160255 L 315.70386 40.160255 Z M 324.28638 47.5 L 324.28638 43.66709 L 321.07486 43.66709 L 321.07486 47.5 L 319.89975 47.5 L 319.89975 39.20049 L 321.07486 39.20049 L 321.07486 42.682716 L 324.28638 42.682716 L 324.28638 39.20049 L 325.4615 39.20049 L 325.4615 47.5 L 324.28638 47.5 Z"/>
        </g>
        <path fill="#ffffff" fill-opacity="0" stroke="#000000" d="M 348 20 L 348 28"/>
        <g>
            <path fill="#000000" stroke="none" d="M 257.64258 24 L 257.64258 23.314453 Q 257.9297 22.675781 258.53613 22.028322 Q 259.14258 21.38086 260.18555 20.548828 Q 261.1172 19.804688 261.52734 19.253906 Q 261.9375 18.703125 261.9375 18.19336 Q 261.9375 17.542969 261.5332 17.191406 Q 261.1289 16.839844 260.3789 16.839844 Q 259.71094 16.839844 259.29785 17.206055 Q 258.88477 17.572266 258.8086 18.234375 L 257.73047 18.134766 Q 257.84766 17.138672 258.54492 16.555664 Q 259.2422 15.972656 260.3789 15.972656 Q 261.62695 15.972656 262.32422 16.535156 Q 263.02148 17.097656 263.02148 18.128906 Q 263.02148 18.802734 262.57617 19.473633 Q 262.13086 20.144531 261.2461 20.847656 Q 260.03906 21.808594 259.57324 22.262695 Q 259.10742 22.716797 258.91406 23.144533 L 263.1504 23.144533 L 263.1504 24 L 257.64258 24 Z M 270.43945 21.832031 Q 270.43945 22.921873 269.70117 23.519531 Q 268.9629 24.117188 267.63867 24.117188 Q 266.38477 24.117188 265.63477 23.548828 Q 264.88477 22.98047 264.75 21.878906 L 265.83984 21.779297 Q 266.05078 23.244139 267.63867 23.244139 Q 268.43555 23.244139 268.88965 22.875 Q 269.34375 22.50586 269.34375 21.796875 Q 269.34375 21.357422 269.07715 21.055664 Q 268.81055 20.753906 268.35352 20.592773 Q 267.89648 20.43164 267.32813 20.43164 L 266.73047 20.43164 L 266.73047 19.517578 L 267.3047 19.517578 Q 267.8086 19.517578 268.22754 19.350586 Q 268.64648 19.183594 268.88672 18.878906 Q 269.12695 18.574219 269.12695 18.158203 Q 269.12695 17.53711 268.7373 17.188477 Q 268.34766 16.839844 267.58008 16.839844 Q 266.8828 16.839844 266.45215 17.197266 Q 266.02148 17.554688 265.95117 18.205078 L 264.89063 18.123047 Q 265.0078 17.109375 265.73145 16.541016 Q 266.45508 15.972656 267.5918 15.972656 Q 268.83398 15.972656 269.52246 16.520508 Q 270.21094 17.06836 270.21094 18.046875 Q 270.21094 18.74414 269.74805 19.259766 Q 269.28516 19.77539 268.48242 19.939453 L 268.48242 19.96289 Q 269.3672 20.0625 269.90332 20.583984 Q 270.43945 21.105469 270.43945 21.832031 Z"/>
        </g>
        <g>
            <path fill="#000000" stroke="none" d="M 329.64258 24 L 329.64258 23.314453 Q 329.9297 22.675781 330.53613 22.028322 Q 331.14258 21.38086 332.18555 20.548828 Q 333.1172 19.804688 333.52734 19.253906 Q 333.9375 18.703125 333.9375 18.19336 Q 333.9375 17.542969 333.5332 17.191406 Q 333.1289 16.839844 332.3789 16.839844 Q 331.71094 16.839844 331.29785 17.206055 Q 330.88477 17.572266 330.8086 18.234375 L 329.73047 18.134766 Q 329.84766 17.138672 330.54492 16.555664 Q 331.2422 15.972656 332.3789 15.972656 Q 333.62695 15.972656 334.32422 16.535156 Q 335.02148 17.097656 335.02148 18.128906 Q 335.02148 18.802734 334.57617 19.473633 Q 334.13086 20.144531 333.2461 20.847656 Q 332.03906 21.808594 331.57324 22.262695 Q 331.10742 22.716797 330.91406 23.144533 L 335.1504 23.144533 L 335.1504 24 L 329.64258 24 Z M 342.4629 20.044922 Q 342.4629 22.02539 341.7334 23.07129 Q 341.0039 24.117188 339.58008 24.117188 Q 338.15625 24.117188 337.4414 23.077148 Q 336.72656 22.03711 336.72656 20.044922 Q 336.72656 18 337.42383 16.986328 Q 338.1211 15.972656 339.61523 15.972656 Q 341.07422 15.972656 341.76855 16.995117 Q 342.4629 18.017578 342.4629 20.044922 Z M 341.39063 20.044922 Q 341.39063 18.345703 340.97754 17.586914 Q 340.56445 16.828125 339.61523 16.828125 Q 338.64258 16.828125 338.21777 17.578125 Q 337.79297 18.328125 337.79297 20.044922 Q 337.79297 21.714844 338.22363 22.48535 Q 338.6543 23.25586 339.5918 23.25586 Q 340.52344 23.25586 340.95703 22.464846 Q 341.39063 21.673828 341.39063 20.044922 Z M 338.90625 20.748047 L 338.90625 19.289063 L 340.2832 19.289063 L 340.2832 20.748047 L 338.90625 20.748047 Z"/>
        </g>
        <path fill="#ffffff" fill-opacity="0" stroke="#000000" d="M 348 28 L 444 28 L 444 58 L 348 58 Z"/>
        <g>
            <path fill="#000000" stroke="none" d="M 369.06198 45.162106 Q 369.06198 46.26953 368.2191 46.884766 Q 367.37622 47.5 365.87503 47.5 L 362.97113 47.5 L 362.97113 39.20049 L 365.5059 39.20049 Q 368.55746 39.20049 368.55746 41.212303 Q 368.55746 41.96289 368.11447 42.467384 Q 367.67154 42.971874 366.90863 43.125683 Q 367.93607 43.236427 368.49902 43.78399 Q 369.06198 44.33154 369.06198 45.162106 Z M 367.37622 41.359962 Q 367.37622 40.70166 366.91168 40.42173 Q 366.4472 40.141796 365.51822 40.141796 L 364.14624 40.141796 L 364.14624 42.70117 L 365.53052 42.70117 Q 367.37622 42.70117 367.37622 41.359962 Z M 367.87454 45.057514 Q 367.87454 44.35615 367.327 43.98701 Q 366.77942 43.61787 365.69662 43.61787 L 364.14624 43.61787 L 364.14624 46.558693 L 365.78275 46.558693 Q 366.85938 46.558693 367.36697 46.186474 Q 367.87454 45.814255 367.87454 45.057514 Z M 376.211 44.48535 Q 376.211 46.12803 375.50964 46.875534 Q 374.80826 47.623047 373.25787 47.623047 Q 371.7567 47.623047 371.083 46.900146 Q 370.40936 46.177242 370.40936 44.596092 L 370.40936 39.20049 L 371.58444 39.20049 L 371.58444 44.43613 Q 371.58444 45.69121 371.94434 46.18032 Q 372.30423 46.669434 373.25174 46.669434 Q 374.24225 46.669434 374.64215 46.16494 Q 375.04205 45.66045 375.04205 44.35615 L 375.04205 39.20049 L 376.211 39.20049 L 376.211 44.48535 Z M 384.03677 45.223633 Q 384.03677 46.35566 383.20932 46.989357 Q 382.3818 47.623047 380.84985 47.623047 Q 378.03824 47.623047 377.58295 45.42051 L 378.72113 45.19287 Q 378.8934 45.986523 379.4348 46.346436 Q 379.97623 46.70635 380.8806 46.70635 Q 381.85883 46.70635 382.3664 46.3249 Q 382.87396 45.94346 382.87396 45.242085 Q 382.87396 44.811424 382.674 44.54072 Q 382.4741 44.27002 382.14798 44.097755 Q 381.8219 43.925488 381.41275 43.81782 Q 381.00366 43.710155 380.5853 43.605564 Q 379.5948 43.347168 379.17337 43.144142 Q 378.7519 42.941113 378.49963 42.679638 Q 378.2474 42.418163 378.11823 42.079784 Q 377.98898 41.741405 377.98898 41.286133 Q 377.98898 40.22178 378.7365 39.646534 Q 379.48404 39.07129 380.8806 39.07129 Q 382.1849 39.07129 382.87396 39.52656 Q 383.56305 39.981834 383.83374 41.064648 L 382.67706 41.267677 Q 382.52945 40.578613 382.0865 40.26792 Q 381.6435 39.957226 380.87445 39.957226 Q 379.1334 39.957226 379.1334 41.267677 Q 379.1334 41.636818 379.2964 41.86753 Q 379.4594 42.098244 379.73935 42.248974 Q 380.01932 42.399708 380.3915 42.498146 Q 380.76376 42.59658 381.18823 42.707325 Q 382.0434 42.922657 382.4187 43.067238 Q 382.794 43.21182 383.0862 43.39638 Q 383.37848 43.580956 383.58765 43.833202 Q 383.79678 44.08545 383.9168 44.42383 Q 384.03677 44.76221 384.03677 45.223633 Z M 384.62738 48.853516 L 384.62738 48.26289 L 392.244 48.26289 L 392.244 48.853516 L 384.62738 48.853516 Z M 398.48248 47.5 L 397.2028 47.5 Q 396.74753 45.801952 396.51065 44.916016 Q 396.27377 44.03008 396.00928 42.848827 Q 395.8308 43.61787 395.68008 44.239258 Q 395.52933 44.860645 394.7972 47.5 L 393.51755 47.5 L 392.2194 39.20049 L 393.38217 39.20049 L 394.05283 44.337696 Q 394.15118 45.143654 394.2558 46.466408 Q 394.4527 45.617382 394.58496 45.06367 Q 394.71725 44.509964 395.4678 41.772167 L 396.5445 41.772167 Q 396.969 43.328712 397.212 44.2208 Q 397.45502 45.112892 397.7565 46.466408 L 397.97183 44.337696 L 398.61166 39.20049 L 399.77448 39.20049 L 398.48248 47.5 Z M 401.02338 39.20049 L 406.0868 39.20049 L 406.0868 40.160255 L 404.1426 40.160255 L 404.1426 46.54023 L 406.0868 46.54023 L 406.0868 47.5 L 401.02338 47.5 L 401.02338 46.54023 L 402.9675 46.54023 L 402.9675 40.160255 L 401.02338 40.160255 L 401.02338 39.20049 Z M 414.26324 43.26719 Q 414.26324 45.30361 413.31885 46.401806 Q 412.37448 47.5 410.6149 47.5 L 408.3385 47.5 L 408.3385 39.20049 L 410.25192 39.20049 Q 412.27603 39.20049 413.26965 40.212547 Q 414.26324 41.22461 414.26324 43.26719 Z M 413.082 43.26719 Q 413.082 41.642967 412.4052 40.90161 Q 411.7285 40.160255 410.25806 40.160255 L 409.51364 40.160255 L 409.51364 46.54023 L 410.51028 46.54023 Q 411.81464 46.54023 412.4483 45.721973 Q 413.082 44.90371 413.082 43.26719 Z M 419.26508 40.160255 L 419.26508 47.5 L 418.09613 47.5 L 418.09613 40.160255 L 415.37064 40.160255 L 415.37064 39.20049 L 421.99057 39.20049 L 421.99057 40.160255 L 419.26508 40.160255 Z M 427.8476 47.5 L 427.8476 43.66709 L 424.63608 43.66709 L 424.63608 47.5 L 423.461 47.5 L 423.461 39.20049 L 424.63608 39.20049 L 424.63608 42.682716 L 427.8476 42.682716 L 427.8476 39.20049 L 429.0227 39.20049 L 429.0227 47.5 L 427.8476 47.5 Z"/>
        </g>
        <path fill="#ffffff" fill-opacity="0" stroke="#000000" d="M 444 20 L 444 28"/>
        <g>
            <path fill="#000000" stroke="none" d="M 353.71875 24 L 353.71875 23.15039 L 356.29102 23.15039 L 356.29102 17.167969 Q 356.07422 17.625 355.2627 17.964844 Q 354.45117 18.304688 353.66602 18.304688 L 353.66602 17.4375 Q 354.5332 17.4375 355.3037 17.05664 Q 356.07422 16.675781 356.3789 16.095703 L 357.35153 16.095703 L 357.35153 23.15039 L 359.4199 23.15039 L 359.4199 24 L 353.71875 24 Z M 366.36914 19.88086 Q 366.36914 21.908203 365.58984 23.012695 Q 364.81052 24.117188 363.38086 24.117188 Q 362.4141 24.117188 361.83105 23.709959 Q 361.24802 23.302736 360.9961 22.394531 L 362.0039 22.236328 Q 362.3203 23.267578 363.39844 23.267578 Q 364.30078 23.267578 364.80762 22.450197 Q 365.31445 21.63281 365.32617 20.191406 Q 365.0918 20.71875 364.52344 21.038086 Q 363.95508 21.357422 363.2754 21.357422 Q 362.16794 21.357422 361.49707 20.610352 Q 360.82617 19.863281 360.82617 18.66211 Q 360.82617 17.419922 361.56152 16.69629 Q 362.2969 15.972656 363.57422 15.972656 Q 366.36914 15.972656 366.36914 19.88086 Z M 365.2207 18.949219 Q 365.2207 18.00586 364.75195 17.416992 Q 364.2832 16.828125 363.53903 16.828125 Q 362.77734 16.828125 362.3379 17.33789 Q 361.89844 17.847656 361.89844 18.66211 Q 361.89844 19.5 362.3379 20.012695 Q 362.77734 20.52539 363.52734 20.52539 Q 363.97266 20.52539 364.36816 20.323242 Q 364.76367 20.121094 364.9922 19.760742 Q 365.2207 19.40039 365.2207 18.949219 Z"/>
        </g>
        <g>
            <path fill="#000000" stroke="none" d="M 425.71875 24 L 425.71875 23.15039 L 428.29105 23.15039 L 428.29105 17.167969 Q 428.07422 17.625 427.2627 17.964844 Q 426.4512 18.304688 425.66602 18.304688 L 425.66602 17.4375 Q 426.5332 17.4375 427.30374 17.05664 Q 428.07422 16.675781 428.37888 16.095703 L 429.35156 16.095703 L 429.35156 23.15039 L 431.41992 23.15039 L 431.41992 24 L 425.71875 24 Z M 438.42188 21.386719 Q 438.42188 22.628908 437.70996 23.373045 Q 436.99805 24.117188 435.75586 24.117188 Q 434.37305 24.117188 433.6289 23.106445 Q 432.88477 22.095703 432.88477 20.238281 Q 432.88477 18.199219 433.65817 17.085938 Q 434.43164 15.972656 435.83792 15.972656 Q 437.70703 15.972656 438.19336 17.654297 L 437.18555 17.835938 Q 436.87503 16.828125 435.82614 16.828125 Q 434.92972 16.828125 434.43164 17.642578 Q 433.9336 18.457031 433.9336 19.927734 Q 434.22067 19.394531 434.7422 19.11621 Q 435.26364 18.83789 435.9375 18.83789 Q 437.0625 18.83789 437.7422 19.532227 Q 438.42188 20.226563 438.42188 21.386719 Z M 437.3496 21.433594 Q 437.3496 20.589844 436.90137 20.121094 Q 436.45313 19.652344 435.68555 19.652344 Q 435.25192 19.652344 434.86523 19.848633 Q 434.47852 20.044922 434.2588 20.393555 Q 434.03906 20.742188 434.03906 21.18164 Q 434.03906 22.072266 434.5107 22.669922 Q 434.98242 23.267578 435.72067 23.267578 Q 436.46484 23.267578 436.90723 22.77539 Q 437.3496 22.283203 437.3496 21.433594 Z"/>
        </g>
        <path fill="#ffffff" fill-opacity="0" stroke="#000000" d="M 444 28 L 636 28 L 636 58 L 444 58 Z"/>
        <g>
            <path fill="#000000" stroke="none" d="M 513.06195 45.162106 Q 513.06195 46.26953 512.2191 46.884766 Q 511.37622 47.5 509.87503 47.5 L 506.97113 47.5 L 506.97113 39.20049 L 509.5059 39.20049 Q 512.5575 39.20049 512.5575 41.212303 Q 512.5575 41.96289 512.1145 42.467384 Q 511.67154 42.971874 510.90863 43.125683 Q 511.93607 43.236427 512.499 43.78399 Q 513.06195 44.33154 513.06195 45.162106 Z M 511.37622 41.359962 Q 511.37622 40.70166 510.91168 40.42173 Q 510.4472 40.141796 509.51822 40.141796 L 508.14624 40.141796 L 508.14624 42.70117 L 509.53052 42.70117 Q 511.37622 42.70117 511.37622 41.359962 Z M 511.87454 45.057514 Q 511.87454 44.35615 511.327 43.98701 Q 510.77942 43.61787 509.69662 43.61787 L 508.14624 43.61787 L 508.14624 46.558693 L 509.78275 46.558693 Q 510.85938 46.558693 511.36697 46.186474 Q 511.87454 45.814255 511.87454 45.057514 Z M 520.211 44.48535 Q 520.211 46.12803 519.50964 46.875534 Q 518.8083 47.623047 517.2579 47.623047 Q 515.7567 47.623047 515.083 46.900146 Q 514.40936 46.177242 514.40936 44.596092 L 514.40936 39.20049 L 515.5844 39.20049 L 515.5844 44.43613 Q 515.5844 45.69121 515.94434 46.18032 Q 516.30426 46.669434 517.2517 46.669434 Q 518.24225 46.669434 518.64215 46.16494 Q 519.04205 45.66045 519.04205 44.35615 L 519.04205 39.20049 L 520.211 39.20049 L 520.211 44.48535 Z M 528.03674 45.223633 Q 528.03674 46.35566 527.2093 46.989357 Q 526.3818 47.623047 524.84985 47.623047 Q 522.0382 47.623047 521.58295 45.42051 L 522.7211 45.19287 Q 522.89343 45.986523 523.4348 46.346436 Q 523.9762 46.70635 524.8806 46.70635 Q 525.8588 46.70635 526.3664 46.3249 Q 526.87396 45.94346 526.87396 45.242085 Q 526.87396 44.811424 526.674 44.54072 Q 526.47406 44.27002 526.148 44.097755 Q 525.8219 43.925488 525.4128 43.81782 Q 525.00366 43.710155 524.5853 43.605564 Q 523.5948 43.347168 523.17334 43.144142 Q 522.7519 42.941113 522.49963 42.679638 Q 522.24744 42.418163 522.1182 42.079784 Q 521.989 41.741405 521.989 41.286133 Q 521.989 40.22178 522.7365 39.646534 Q 523.484 39.07129 524.8806 39.07129 Q 526.18494 39.07129 526.87396 39.52656 Q 527.56305 39.981834 527.83374 41.064648 L 526.6771 41.267677 Q 526.5294 40.578613 526.0865 40.26792 Q 525.6435 39.957226 524.87445 39.957226 Q 523.13336 39.957226 523.13336 41.267677 Q 523.13336 41.636818 523.2964 41.86753 Q 523.4594 42.098244 523.7394 42.248974 Q 524.0193 42.399708 524.3915 42.498146 Q 524.76373 42.59658 525.18823 42.707325 Q 526.0434 42.922657 526.4187 43.067238 Q 526.794 43.21182 527.08624 43.39638 Q 527.3785 43.580956 527.58765 43.833202 Q 527.7968 44.08545 527.9168 44.42383 Q 528.03674 44.76221 528.03674 45.223633 Z M 528.6274 48.853516 L 528.6274 48.26289 L 536.24396 48.26289 L 536.24396 48.853516 L 528.6274 48.853516 Z M 543.1592 45.223633 Q 543.1592 46.35566 542.3317 46.989357 Q 541.5042 47.623047 539.9723 47.623047 Q 537.16064 47.623047 536.7054 45.42051 L 537.84357 45.19287 Q 538.01587 45.986523 538.55725 46.346436 Q 539.09863 46.70635 540.00305 46.70635 Q 540.98126 46.70635 541.48883 46.3249 Q 541.9964 45.94346 541.9964 45.242085 Q 541.9964 44.811424 541.79645 44.54072 Q 541.5965 44.27002 541.27045 44.097755 Q 540.94434 43.925488 540.5352 43.81782 Q 540.1261 43.710155 539.70776 43.605564 Q 538.7172 43.347168 538.2958 43.144142 Q 537.8743 42.941113 537.6221 42.679638 Q 537.3699 42.418163 537.24066 42.079784 Q 537.11145 41.741405 537.11145 41.286133 Q 537.11145 40.22178 537.85895 39.646534 Q 538.60645 39.07129 540.00305 39.07129 Q 541.3074 39.07129 541.9964 39.52656 Q 542.6855 39.981834 542.9562 41.064648 L 541.79956 41.267677 Q 541.65186 40.578613 541.2089 40.26792 Q 540.7659 39.957226 539.9969 39.957226 Q 538.2558 39.957226 538.2558 41.267677 Q 538.2558 41.636818 538.4188 41.86753 Q 538.58185 42.098244 538.8618 42.248974 Q 539.1417 42.399708 539.5139 42.498146 Q 539.88617 42.59658 540.31067 42.707325 Q 541.16583 42.922657 541.54114 43.067238 Q 541.91644 43.21182 542.2087 43.39638 Q 542.5009 43.580956 542.7101 43.833202 Q 542.91925 44.08545 543.03925 44.42383 Q 543.1592 44.76221 543.1592 45.223633 Z M 545.2388 47.5 L 545.2388 39.20049 L 546.4138 39.20049 L 546.4138 46.54023 L 550.5482 46.54023 L 550.5482 47.5 L 545.2388 47.5 Z M 558.2694 43.310253 Q 558.2694 45.383595 557.4542 46.503315 Q 556.63904 47.623047 555.1132 47.623047 Q 553.5813 47.623047 552.7753 46.52178 Q 551.9694 45.42051 551.9694 43.310253 Q 551.9694 41.236916 552.7692 40.154102 Q 553.56903 39.07129 555.12555 39.07129 Q 556.6452 39.07129 557.4573 40.13872 Q 558.2694 41.206154 558.2694 43.310253 Z M 557.0328 43.310253 Q 557.0328 40.031055 555.12555 40.031055 Q 553.206 40.031055 553.206 43.310253 Q 553.206 44.971386 553.6921 45.82041 Q 554.1781 46.669434 555.1194 46.669434 Q 556.12225 46.669434 556.5775 45.80811 Q 557.0328 44.946774 557.0328 43.310253 Z M 563.2651 40.160255 L 563.2651 47.5 L 562.0961 47.5 L 562.0961 40.160255 L 559.37067 40.160255 L 559.37067 39.20049 L 565.9906 39.20049 L 565.9906 40.160255 L 563.2651 40.160255 Z M 573.4041 45.223633 Q 573.4041 46.35566 572.57666 46.989357 Q 571.74915 47.623047 570.2172 47.623047 Q 567.4056 47.623047 566.9503 45.42051 L 568.0885 45.19287 Q 568.2608 45.986523 568.8022 46.346436 Q 569.34357 46.70635 570.248 46.70635 Q 571.2262 46.70635 571.73376 46.3249 Q 572.24133 45.94346 572.24133 45.242085 Q 572.24133 44.811424 572.0414 44.54072 Q 571.84143 44.27002 571.5154 44.097755 Q 571.1893 43.925488 570.78015 43.81782 Q 570.37103 43.710155 569.9527 43.605564 Q 568.96216 43.347168 568.5407 43.144142 Q 568.11926 42.941113 567.867 42.679638 Q 567.6148 42.418163 567.4856 42.079784 Q 567.3564 41.741405 567.3564 41.286133 Q 567.3564 40.22178 568.1039 39.646534 Q 568.8514 39.07129 570.248 39.07129 Q 571.5523 39.07129 572.24133 39.52656 Q 572.9304 39.981834 573.2011 41.064648 L 572.0445 41.267677 Q 571.8968 40.578613 571.45386 40.26792 Q 571.01086 39.957226 570.2418 39.957226 Q 568.50073 39.957226 568.50073 41.267677 Q 568.50073 41.636818 568.66376 41.86753 Q 568.8268 42.098244 569.10675 42.248974 Q 569.38666 42.399708 569.75885 42.498146 Q 570.1311 42.59658 570.5556 42.707325 Q 571.41077 42.922657 571.7861 43.067238 Q 572.1614 43.21182 572.4536 43.39638 Q 572.74585 43.580956 572.955 43.833202 Q 573.1642 44.08545 573.2842 44.42383 Q 573.4041 44.76221 573.4041 45.223633 Z"/>
        </g>
        <path fill="#ffffff" fill-opacity="0" stroke="#000000" d="M 636 20 L 636 28"/>
        <g>
            <path fill="#000000" stroke="none" d="M 449.71875 24 L 449.71875 23.15039 L 452.29102 23.15039 L 452.29102 17.167969 Q 452.07422 17.625 451.2627 17.964844 Q 450.45117 18.304688 449.66602 18.304688 L 449.66602 17.4375 Q 450.5332 17.4375 451.3037 17.05664 Q 452.07422 16.675781 452.3789 16.095703 L 453.35153 16.095703 L 453.35153 23.15039 L 455.4199 23.15039 L 455.4199 24 L 449.71875 24 Z M 462.43945 21.398438 Q 462.43945 22.212889 462.09375 22.828125 Q 461.74805 23.44336 461.083 23.780273 Q 460.41797 24.117188 459.50977 24.117188 Q 458.35547 24.117188 457.64648 23.613281 Q 456.9375 23.109377 456.75 22.154297 L 457.8164 22.03125 Q 458.1504 23.25586 459.5332 23.25586 Q 460.3594 23.25586 460.85156 22.763672 Q 461.34375 22.271486 461.34375 21.421875 Q 461.34375 20.695313 460.85742 20.232422 Q 460.3711 19.769531 459.55667 19.769531 Q 459.1289 19.769531 458.7598 19.904297 Q 458.39063 20.039063 458.02148 20.361328 L 456.99023 20.361328 L 457.26566 16.095703 L 461.959 16.095703 L 461.959 16.945313 L 458.23828 16.945313 L 458.0684 19.435547 Q 458.75394 18.908203 459.7734 18.908203 Q 460.96875 18.908203 461.7041 19.59668 Q 462.43945 20.285156 462.43945 21.398438 Z"/>
        </g>
        <g>
            <path fill="#000000" stroke="none" d="M 626.8096 21.785156 Q 626.8096 22.863281 626.0801 23.490234 Q 625.3506 24.117188 623.9971 24.117188 Q 622.67285 24.117188 621.9258 23.501951 Q 621.1787 22.88672 621.1787 21.796875 Q 621.1787 21.041016 621.6416 20.510742 Q 622.1045 19.980469 622.8252 19.857422 L 622.8252 19.833984 Q 622.16895 19.675781 621.7705 19.166016 Q 621.3721 18.65625 621.3721 18 Q 621.3721 17.425781 621.69727 16.957031 Q 622.02246 16.488281 622.61426 16.230469 Q 623.20605 15.972656 623.97363 15.972656 Q 624.77637 15.972656 625.374 16.233398 Q 625.9717 16.49414 626.2881 16.957031 Q 626.6045 17.419922 626.6045 18.011719 Q 626.6045 18.673828 626.2002 19.183594 Q 625.7959 19.69336 625.13965 19.822266 L 625.13965 19.845703 Q 625.90137 19.96875 626.35547 20.487305 Q 626.8096 21.00586 626.8096 21.785156 Z M 625.5088 18.070313 Q 625.5088 17.419922 625.1133 17.088867 Q 624.7178 16.757813 623.97363 16.757813 Q 623.2529 16.757813 622.85156 17.091797 Q 622.4502 17.425781 622.4502 18.070313 Q 622.4502 18.720703 622.8545 19.078125 Q 623.2588 19.435547 623.98535 19.435547 Q 625.5088 19.435547 625.5088 18.070313 Z M 625.71387 21.685547 Q 625.71387 20.982422 625.25684 20.604492 Q 624.7998 20.226563 623.97363 20.226563 Q 623.17676 20.226563 622.72266 20.63379 Q 622.26855 21.041016 622.26855 21.708984 Q 622.26855 22.499998 622.71094 22.913086 Q 623.1533 23.326172 624.0088 23.326172 Q 624.8701 23.326172 625.292 22.921873 Q 625.71387 22.517578 625.71387 21.685547 Z"/>
        </g>
        <path fill="#ffffff" fill-opacity="0" stroke="#000000" d="M 636 28 L 828 28 L 828 58 L 636 58 Z"/>
        <g>
            <path fill="#000000" stroke="none" d="M 720.03674 45.223633 Q 720.03674 46.35566 719.2093 46.989357 Q 718.3818 47.623047 716.8499 47.623047 Q 714.0382 47.623047 713.58295 45.42051 L 714.7211 45.19287 Q 714.8934 45.986523 715.4348 46.346436 Q 715.9762 46.70635 716.8806 46.70635 Q 717.8588 46.70635 718.3664 46.3249 Q 718.87396 45.94346 718.87396 45.242085 Q 718.87396 44.811424 718.674 44.54072 Q 718.47406 44.27002 718.148 44.097755 Q 717.8219 43.925488 717.4128 43.81782 Q 717.00366 43.710155 716.58527 43.605564 Q 715.5948 43.347168 715.17334 43.144142 Q 714.7519 42.941113 714.49963 42.679638 Q 714.24744 42.418163 714.11816 42.079784 Q 713.989 41.741405 713.989 41.286133 Q 713.989 40.22178 714.7365 39.646534 Q 715.484 39.07129 716.8806 39.07129 Q 718.18494 39.07129 718.87396 39.52656 Q 719.56305 39.981834 719.83374 41.064648 L 718.6771 41.267677 Q 718.5294 40.578613 718.0865 40.26792 Q 717.64355 39.957226 716.87445 39.957226 Q 715.13336 39.957226 715.13336 41.267677 Q 715.13336 41.636818 715.2964 41.86753 Q 715.45935 42.098244 715.7394 42.248974 Q 716.0193 42.399708 716.3915 42.498146 Q 716.76373 42.59658 717.18823 42.707325 Q 718.0434 42.922657 718.41876 43.067238 Q 718.794 43.21182 719.08624 43.39638 Q 719.37854 43.580956 719.58765 43.833202 Q 719.7968 44.08545 719.9168 44.42383 Q 720.03674 44.76221 720.03674 45.223633 Z M 722.1163 47.5 L 722.1163 39.20049 L 723.2913 39.20049 L 723.2913 46.54023 L 727.42566 46.54023 L 727.42566 47.5 L 722.1163 47.5 Z M 735.1469 43.310253 Q 735.1469 45.383595 734.3317 46.503315 Q 733.51654 47.623047 731.9908 47.623047 Q 730.45874 47.623047 729.65283 46.52178 Q 728.8469 45.42051 728.8469 43.310253 Q 728.8469 41.236916 729.64667 40.154102 Q 730.44653 39.07129 732.00305 39.07129 Q 733.52277 39.07129 734.33484 40.13872 Q 735.1469 41.206154 735.1469 43.310253 Z M 733.9103 43.310253 Q 733.9103 40.031055 732.00305 40.031055 Q 730.0835 40.031055 730.0835 43.310253 Q 730.0835 44.971386 730.5696 45.82041 Q 731.05566 46.669434 731.9969 46.669434 Q 732.99976 46.669434 733.455 45.80811 Q 733.9103 44.946774 733.9103 43.310253 Z M 740.14264 40.160255 L 740.14264 47.5 L 738.9737 47.5 L 738.9737 40.160255 L 736.2482 40.160255 L 736.2482 39.20049 L 742.86816 39.20049 L 742.86816 40.160255 L 740.14264 40.160255 Z M 750.2817 45.223633 Q 750.2817 46.35566 749.4542 46.989357 Q 748.6267 47.623047 747.0947 47.623047 Q 744.2832 47.623047 743.8279 45.42051 L 744.96606 45.19287 Q 745.13837 45.986523 745.67975 46.346436 Q 746.2211 46.70635 747.12555 46.70635 Q 748.10376 46.70635 748.6113 46.3249 Q 749.1189 45.94346 749.1189 45.242085 Q 749.1189 44.811424 748.91895 44.54072 Q 748.719 44.27002 748.39294 44.097755 Q 748.06683 43.925488 747.6577 43.81782 Q 747.2486 43.710155 746.83026 43.605564 Q 745.8397 43.347168 745.4183 43.144142 Q 744.9969 42.941113 744.74457 42.679638 Q 744.4924 42.418163 744.36316 42.079784 Q 744.23395 41.741405 744.23395 41.286133 Q 744.23395 40.22178 744.98145 39.646534 Q 745.729 39.07129 747.12555 39.07129 Q 748.4299 39.07129 749.1189 39.52656 Q 749.8079 39.981834 750.0787 41.064648 L 748.92206 41.267677 Q 748.77435 40.578613 748.3314 40.26792 Q 747.88837 39.957226 747.1194 39.957226 Q 745.3783 39.957226 745.3783 41.267677 Q 745.3783 41.636818 745.5413 41.86753 Q 745.70435 42.098244 745.9843 42.248974 Q 746.2642 42.399708 746.6364 42.498146 Q 747.00867 42.59658 747.43317 42.707325 Q 748.2883 42.922657 748.6636 43.067238 Q 749.03894 43.21182 749.3312 43.39638 Q 749.62335 43.580956 749.8326 43.833202 Q 750.04175 44.08545 750.16174 44.42383 Q 750.2817 44.76221 750.2817 45.223633 Z"/>
        </g>
        <path fill="#ffffff" fill-opacity="0" stroke="#000000" d="M 828 20 L 828 28"/>
        <g>
            <path fill="#000000" stroke="none" d="M 650.6631 16.910156 Q 647.8916 20.894531 647.8916 24 L 646.79004 24 Q 646.79004 22.458984 647.5078 20.674805 Q 648.2256 18.890625 649.64355 16.945313 L 645.3252 16.945313 L 645.3252 16.095703 L 650.6631 16.095703 L 650.6631 16.910156 Z"/>
        </g>
        <g>
            <path fill="#000000" stroke="none" d="M 818.8623 20.044922 Q 818.8623 22.02539 818.1328 23.07129 Q 817.4033 24.117188 815.9795 24.117188 Q 814.5556 24.117188 813.8408 23.077148 Q 813.126 22.03711 813.126 20.044922 Q 813.126 18 813.82324 16.986328 Q 814.5205 15.972656 816.01465 15.972656 Q 817.47363 15.972656 818.16797 16.995117 Q 818.8623 18.017578 818.8623 20.044922 Z M 817.7901 20.044922 Q 817.7901 18.345703 817.37695 17.586914 Q 816.9638 16.828125 816.01465 16.828125 Q 815.042 16.828125 814.6171 17.578125 Q 814.1924 18.328125 814.1924 20.044922 Q 814.1924 21.714844 814.62305 22.48535 Q 815.0537 23.25586 815.9912 23.25586 Q 816.92285 23.25586 817.35645 22.464846 Q 817.7901 21.673828 817.7901 20.044922 Z M 815.30566 20.748047 L 815.30566 19.289063 L 816.6826 19.289063 L 816.6826 20.748047 L 815.30566 20.748047 Z"/>
        </g>
    </g>
    <g/>
    <path fill="#000000" stroke="#000000" stroke-opacity="0" d="M 828 0 L 888 0"/>
</svg>
