<svg xmlns:ev="http://www.w3.org/2001/xml-events" xmlns:xlink="http://www.w3.org/1999/xlink" xmlns="http://www.w3.org/2000/svg" viewBox="0 0 266 183" height="183" width="266"><defs/><g id="page1" transform="translate(5.5,5.5)"><rect fill="none" x="0" y="0" height="173" width="256"/><g id="shape1" transform="translate(22.000000,29.000000)"><path d="M.0,.0L98.9,.0L98.9,129.0L.0,129.0L.0,.0z" fill-rule="nonzero" fill="#ffffff" stroke="#323232" stroke-width="1"/><text xml:space="preserve" style="fill:#191919;font-family:Lato,PingFang SC,Mircrosoft YaHei,Arial;font-size:10.00pt"><tspan style="font-family:Lato,PingFang SC,Mircrosoft YaHei,Arial" x="11.4" y="17.0">Sender agent </tspan><tspan style="font-family:Lato,PingFang SC,Mircrosoft YaHei,Arial" x="26.9" y="33.0">domain </tspan></text></g><g id="shape2" transform="translate(139.453800,29.000000)"><path d="M.0,.0L98.9,.0L98.9,129.0L.0,129.0L.0,.0z" fill-rule="nonzero" fill="#ffffff" stroke="#323232" stroke-width="1"/><text xml:space="preserve" style="fill:#191919;font-family:Lato,PingFang SC,Mircrosoft YaHei,Arial;font-size:10.00pt"><tspan style="font-family:Lato,PingFang SC,Mircrosoft YaHei,Arial" x="6.4" y="17.0">Receiver agent </tspan><tspan style="font-family:Lato,PingFang SC,Mircrosoft YaHei,Arial" x="28.4" y="33.0">domain</tspan></text></g><g id="shape3" transform="translate(149.402500,74.000000)"><path d="M.0,.0L79.0,.0L79.0,39.0L.0,39.0L.0,.0z" fill-rule="nonzero" fill="#95d600"/><text xml:space="preserve" style="fill:#191919;font-family:Lato,PingFang SC,Mircrosoft YaHei,Arial;font-size:10.00pt"><tspan style="font-family:Lato,PingFang SC,Mircrosoft YaHei,Arial" x="20.0" y="24.5">MHUR</tspan></text></g><g id="shape4" transform="translate(31.948700,74.000000)"><path d="M.0,.0L79.0,.0L79.0,39.0L.0,39.0L.0,.0z" fill-rule="nonzero" fill="#00c1de"/><text xml:space="preserve" style="fill:#191919;font-family:Lato,PingFang SC,Mircrosoft YaHei,Arial;font-size:10.00pt"><tspan style="font-family:Lato,PingFang SC,Mircrosoft YaHei,Arial" x="20.5" y="24.5">MHUS</tspan></text></g><g id="shape5" transform="translate(110.948700,93.500000)"><path d="M6.9,.0L32.1,.0" fill="none" stroke="#333e49" stroke-width="1.333330035209656"/><path stroke-linecap="round" d="M6.9,3.5L.0,.0L6.9,-3.5L6.9,3.5" fill="#333e49" stroke="#333e49" stroke-width="1"/><path stroke-linecap="round" d="M32.1,-3.5L39.0,.0L32.1,3.5L32.1,-3.5" fill="#333e49" stroke="#333e49" stroke-width="1"/></g><g id="shape6" transform="translate(9.000000,9.000000)"><path d="M.0,.0L238.0,.0L238.0,155.0L.0,155.0L.0,.0z" fill="none" stroke="#323232" stroke-width="1"/><text xml:space="preserve" style="fill:#191919;font-family:Lato,PingFang SC,Mircrosoft YaHei,Arial;font-size:8.00pt;font-weight:bold"><tspan style="font-family:Lato,PingFang SC,Mircrosoft YaHei,Arial" x="106.0" y="15.0">MHU</tspan></text></g></g></svg>