<svg xmlns="http://www.w3.org/2000/svg" version="1.1" width="968" height="98"><g><line x1="100" y1="20" x2="100" y2="28" style="fill:rgb(211,211,211);stroke:black;stroke-width:1;fill-opacity:1;"/><rect x="100" y="28" width="24" height="30" style="fill:rgb(211,211,211);stroke:black;stroke-width:1;fill-opacity:1;"/><line x1="124" y1="20" x2="124" y2="28" style="fill:rgb(211,211,211);stroke:black;stroke-width:1;fill-opacity:1;"/><text x="112" y="24" style="font-family: monospace;fill:black" font-size="11" text-anchor="middle">31</text><rect x="124" y="28" width="72" height="30" style="fill:white;stroke:black;stroke-width:1;fill-opacity:0;"/><line x1="196" y1="20" x2="196" y2="28" style="fill:white;stroke:black;stroke-width:1;fill-opacity:0;"/><text x="136" y="24" style="font-family: monospace;fill:black" font-size="11" text-anchor="middle">30</text><text x="184" y="24" style="font-family: monospace;fill:black" font-size="11" text-anchor="middle">28</text><rect x="196" y="28" width="288" height="30" style="fill:white;stroke:black;stroke-width:1;fill-opacity:0;"/><text x="340" y="47.5" style="fill:black;font-family:monospace;font-size:16;text-anchor:middle">BLKID</text><line x1="484" y1="20" x2="484" y2="28" style="fill:white;stroke:black;stroke-width:1;fill-opacity:0;"/><text x="208" y="24" style="font-family: monospace;fill:black" font-size="11" text-anchor="middle">27</text><text x="472" y="24" style="font-family: monospace;fill:black" font-size="11" text-anchor="middle">16</text><rect x="484" y="28" width="192" height="30" style="fill:white;stroke:black;stroke-width:1;fill-opacity:0;"/><text x="580" y="47.5" style="fill:black;font-family:monospace;font-size:16;text-anchor:middle">SMID</text><line x1="676" y1="20" x2="676" y2="28" style="fill:white;stroke:black;stroke-width:1;fill-opacity:0;"/><text x="496" y="24" style="font-family: monospace;fill:black" font-size="11" text-anchor="middle">15</text><text x="664" y="24" style="font-family: monospace;fill:black" font-size="11" text-anchor="middle">8</text><rect x="676" y="28" width="168" height="30" style="fill:rgb(211,211,211);stroke:black;stroke-width:1;fill-opacity:1;"/><text x="760" y="47.5" style="fill:black;font-family:monospace;font-size:16;text-anchor:middle">RES0</text><line x1="844" y1="20" x2="844" y2="28" style="fill:rgb(211,211,211);stroke:black;stroke-width:1;fill-opacity:1;"/><text x="688" y="24" style="font-family: monospace;fill:black" font-size="11" text-anchor="middle">7</text><text x="832" y="24" style="font-family: monospace;fill:black" font-size="11" text-anchor="middle">1</text><rect x="844" y="28" width="24" height="30" style="fill:white;stroke:black;stroke-width:1;fill-opacity:0;"/><text x="856" y="47.5" style="fill:black;font-family:monospace;font-size:16;text-anchor:middle">CR</text><line x1="868" y1="20" x2="868" y2="28" style="fill:white;stroke:black;stroke-width:1;fill-opacity:0;"/><text x="856" y="24" style="font-family: monospace;fill:black" font-size="11" text-anchor="middle">0</text></g><g/><line x1="868" y1="0" x2="968" y2="0" style="stroke-opacity:0;stroke:black;stroke-width:1;"/><line x1="112" y1="60" x2="112" y2="78" style="fill:rgb(211,211,211);stroke:black;stroke-width:1;fill-opacity:1;"/><line x1="112" y1="78" x2="102" y2="78" style="fill:rgb(211,211,211);stroke:black;stroke-width:1;fill-opacity:1;"/><text x="100" y="80" style="fill:black;font-family:monospace;font-size:16;text-anchor:end">RES0</text><line x1="160" y1="60" x2="160" y2="78" style="fill:white;stroke:black;stroke-width:1;fill-opacity:0;"/><line x1="160" y1="78" x2="170" y2="78" style="fill:white;stroke:black;stroke-width:1;fill-opacity:0;"/><text x="172" y="80" style="fill:black;font-family:monospace;font-size:16;text-anchor:start">BLKTYPE</text></svg>